<svg width="407" height="155" xmlns="http://www.w3.org/2000/svg" xmlns:xlink="http://www.w3.org/1999/xlink">
 <!-- Created with Method Draw - http://github.com/duopixel/Method-Draw/ -->
 <defs>
  <symbol viewBox="0, 0, 400,156.38297872340425" height="156.382979" width="400" id="svg_5" xmlns:xlink="http://www.w3.org/1999/xlink">
   <g id="svg_2">
    <path fill-rule="evenodd" fill="#3e4e83" d="m193.917,2.261c-5.134,0.116 -10.504,0.29 -11.934,0.387c-1.43,0.096 -5.292,0.33 -8.583,0.519c-8.761,0.505 -22.574,1.931 -33.15,3.423c-8.926,1.259 -13.086,1.97 -24.483,4.188c-21.733,4.23 -46.701,12.578 -63.35,21.182c-5.476,2.829 -13.807,7.856 -16.066,9.694c-3.048,2.48 -4.101,3.322 -5.268,4.214c-2.404,1.837 -8.384,8.139 -10.378,10.939c-10.016,14.058 -9.724,28.805 0.849,42.854c1.27,1.688 7.469,8.172 7.812,8.172c1.024,0 0.357,-1.071 -2.44,-3.916c-26.174,-26.633 -9.827,-57.425 41.378,-77.94c26.222,-10.507 55.836,-16.989 95.029,-20.804c17.771,-1.729 42.642,-2.211 64.334,-1.245c14.861,0.662 17.774,0.888 31,2.412c5.466,0.63 9.56,1.151 16.333,2.078c26.267,3.596 55.55,11.682 75.75,20.918c29.975,13.704 45.667,30.312 45.667,48.331c0,22.256 -24.369,42.623 -68.2,57.002c-22.645,7.429 -46.153,12.005 -78.717,15.326c-13.499,1.376 -39.181,2.274 -53.083,1.856c-24.163,-0.726 -34.394,-1.51 -54.75,-4.194c-33.647,-4.436 -64.666,-13.176 -87.489,-24.651c-2.358,-1.186 -4.564,-1.512 -3.15,-0.467c3.787,2.802 24.986,11.479 35.472,14.52c1.421,0.412 4.646,1.35 7.167,2.084c2.521,0.735 5.858,1.641 7.416,2.013c10.002,2.39 13.706,3.232 16.584,3.769c1.787,0.333 5.012,0.937 7.166,1.341c2.154,0.404 4.779,0.883 5.834,1.064c3.352,0.578 18.316,2.65 21,2.909c1.42,0.137 5.583,0.548 9.25,0.913c6.19,0.616 11.118,0.961 22.75,1.589c4.68,0.253 21.339,0.557 26,0.474c9.311,-0.165 17.777,-0.418 21,-0.629c2.062,-0.135 5.812,-0.36 8.333,-0.502c11.33,-0.635 34.071,-3.348 44.833,-5.349c10.434,-1.939 14.775,-2.835 21.602,-4.459c25.791,-6.134 48.103,-14.842 63.732,-24.872c5.032,-3.229 5.462,-3.534 8.671,-6.154c1.123,-0.917 2.462,-1.989 2.977,-2.383c1.841,-1.409 7.761,-7.686 9.457,-10.027c9.94,-13.726 10.015,-28.335 0.214,-42.027c-1.783,-2.49 -7.208,-8.333 -9.406,-10.13c-6.297,-5.148 -6.644,-5.404 -11.891,-8.755c-11.465,-7.322 -29.935,-15.477 -44.57,-19.679c-1.486,-0.427 -3.415,-0.988 -4.286,-1.247c-5.32,-1.582 -8.336,-2.406 -11.583,-3.166c-4.435,-1.037 -6.412,-1.504 -9.583,-2.26c-13.636,-3.254 -43.271,-7.366 -60,-8.327c-2.521,-0.144 -6.309,-0.374 -8.417,-0.509c-3.43,-0.221 -23.396,-0.759 -26.333,-0.71c-0.642,0.011 -5.367,0.115 -10.5,0.231m-141.42,48.992c-0.38,0.458 -0.184,11.381 0.209,11.656c1.145,0.801 1.46,0.166 1.506,-3.028c0.049,-3.508 -0.168,-3.281 3.219,-3.351l2.586,-0.054l0.163,-0.427c0.459,-1.207 -0.082,-1.408 -3.165,-1.173c-2.893,0.219 -2.842,0.239 -2.846,-1.081c-0.003,-0.963 -0.175,-0.912 3.482,-1.026c1.99,-0.061 2.773,-0.144 2.873,-0.302c0.205,-0.324 0.171,-0.903 -0.066,-1.095c-0.299,-0.243 -7.765,-0.354 -7.961,-0.119m148.086,2.602c-1.079,0.437 -1.444,0.777 -1.383,1.286c0.085,0.698 0.51,0.813 1.385,0.376c1.983,-0.99 3.748,-0.35 3.748,1.361c0,0.838 -0.716,1.568 -1.959,1.999c-1.164,0.404 -1.707,1.075 -1.707,2.11c0,1.687 1.37,1.825 1.785,0.18c0.122,-0.483 0.31,-0.67 1.091,-1.084c4.639,-2.456 1.91,-8.198 -2.96,-6.228m22.6,0.103c-0.332,0.273 -0.36,0.494 -0.449,3.459c-0.059,1.96 -0.167,3.252 -0.283,3.392c-0.206,0.248 -2.078,0.164 -4.451,-0.202l-1.25,-0.192l0.062,-2.957c0.068,-3.229 0.014,-3.458 -0.823,-3.458c-0.663,0 -0.738,0.207 -0.749,2.083c-0.005,0.917 -0.109,2.792 -0.231,4.167c-0.316,3.576 -0.116,5.811 0.524,5.885c0.974,0.113 1.123,-0.143 1.118,-1.912c-0.005,-2.085 -0.164,-1.99 2.943,-1.764c3.142,0.228 3.073,0.184 3.073,1.952c0,1.761 0.493,2.342 1.432,1.684c0.542,-0.379 0.553,-11.803 0.012,-12.182c-0.445,-0.311 -0.498,-0.309 -0.928,0.045m-160.259,0.6c-0.257,0.187 -0.289,0.36 -0.197,1.053c0.06,0.457 0.114,2.239 0.119,3.961c0.011,4.156 -0.133,3.982 3.228,3.902c2.511,-0.06 3.097,-0.242 3.09,-0.958c-0.006,-0.686 -0.245,-0.768 -2.075,-0.713c-2.401,0.072 -2.353,0.098 -2.485,-1.328c-0.15,-1.612 -0.114,-1.642 1.974,-1.642c1.439,0 1.747,-0.047 1.98,-0.304c0.804,-0.89 0.055,-1.362 -2.158,-1.362c-1.822,0 -2.143,-0.135 -2.038,-0.855c0.081,-0.55 0.772,-0.677 3.02,-0.555c2.081,0.113 2.451,0.019 2.451,-0.619c0,-0.757 -5.981,-1.259 -6.909,-0.58m9.161,0.214c-0.195,0.195 -0.231,0.502 -0.16,1.365c0.05,0.612 0.107,2.399 0.125,3.971c0.044,3.753 -0.118,3.559 2.965,3.559c3.037,0 3.924,-0.389 3.246,-1.424c-0.259,-0.396 -0.291,-0.4 -2.09,-0.297c-2.316,0.132 -2.338,0.117 -2.338,-1.633c0,-0.722 0.019,-1.323 0.042,-1.336c0.023,-0.012 0.942,-0.068 2.042,-0.125c1.996,-0.102 2,-0.103 2.05,-0.533c0.084,-0.726 -0.332,-0.902 -2.138,-0.906c-1.757,-0.004 -2.162,-0.162 -2.162,-0.844c0,-0.673 0.511,-0.794 2.848,-0.67c2.372,0.125 3.004,-0.087 2.521,-0.847c-0.382,-0.6 -6.388,-0.843 -6.951,-0.28m9.236,0.24c-0.644,0.645 -0.432,8.135 0.244,8.572c0.65,0.42 5.389,0.092 5.788,-0.401c0.748,-0.923 0.13,-1.59 -1.097,-1.185c-0.746,0.246 -2.997,0.064 -3.27,-0.265c-0.256,-0.308 -0.522,-3.879 -0.393,-5.259c0.145,-1.539 -0.478,-2.255 -1.272,-1.462m12.83,0.018c-0.329,0.613 -0.12,7.988 0.241,8.54c0.772,1.177 1.787,0.16 1.458,-1.46c-0.588,-2.899 -0.292,-3.785 0.745,-2.235c0.261,0.39 0.709,0.933 0.995,1.208c0.287,0.275 0.83,0.881 1.207,1.347c1.07,1.319 1.904,1.832 2.547,1.566c0.898,-0.373 0.936,-0.562 0.972,-4.886c0.035,-4.269 0.004,-4.443 -0.803,-4.443c-0.763,0 -0.854,0.242 -0.743,1.99c0.102,1.625 -0.144,4.117 -0.437,4.41c-0.367,0.367 -3.19,-3.092 -4.032,-4.941c-0.601,-1.322 -1.724,-1.894 -2.15,-1.096m14.266,-0.248c-1.8,0.414 -2.316,0.817 -3.208,2.507c-2.327,4.407 0.556,7.994 5.594,6.962c2.228,-0.457 2.472,-0.831 2.187,-3.342c-0.241,-2.119 -1.114,-2.881 -2.773,-2.42c-0.348,0.097 -0.995,0.176 -1.436,0.177c-1.016,0.001 -1.448,0.228 -1.448,0.761c0,0.557 0.529,0.74 2.145,0.74c1.54,0 1.689,0.112 1.689,1.273c0,1.036 0.082,0.97 -1.555,1.244c-2.62,0.439 -4.106,-1.436 -3.192,-4.027c0.648,-1.836 1.598,-2.417 3.668,-2.245c1.534,0.128 1.943,-0.065 1.58,-0.744c-0.438,-0.817 -1.863,-1.205 -3.251,-0.886m-18.46,0.426c-0.237,0.181 -0.278,0.719 -0.313,4.071c-0.043,4.136 0.002,4.388 0.781,4.388c1.124,0 1.27,-1.251 0.804,-6.882c-0.128,-1.551 -0.576,-2.107 -1.272,-1.577m43.71,0.305c-4.532,2.049 -2.979,9.335 1.985,9.316c3.588,-0.014 5.126,-4.82 2.624,-8.204c-1.018,-1.377 -2.977,-1.85 -4.609,-1.112m-9.1,0.291c-2.741,1.985 -3.687,5.247 -2.076,7.158c1.316,1.562 6.055,1.8 6.913,0.348c0.505,-0.854 0.094,-1.101 -1.406,-0.844c-1.45,0.248 -2.571,0.243 -3.326,-0.017c-2.973,-1.024 -0.47,-6.303 2.67,-5.629c1.205,0.258 1.622,0.226 1.818,-0.141c0.641,-1.197 -3.152,-1.919 -4.593,-0.875m23.87,-0.217c-0.149,0.149 -0.27,0.359 -0.269,0.467c0.04,4.486 -0.163,6.095 -0.736,5.831c-0.727,-0.334 -3.484,-4.068 -3.846,-5.209c-0.277,-0.875 -1.485,-1.419 -1.961,-0.884c-0.331,0.371 -0.137,8.375 0.213,8.797c0.921,1.11 1.853,-0.435 1.314,-2.18c-0.324,-1.049 -0.365,-2.252 -0.087,-2.53c0.138,-0.137 0.594,0.285 1.03,0.952c1.083,1.659 3.628,4.005 4.343,4.004c1.006,-0.002 1.114,-0.226 1.16,-2.387c0.021,-1.026 0.083,-2.765 0.138,-3.865c0.13,-2.62 -0.416,-3.879 -1.299,-2.996m3.634,0.532c-0.24,0.241 -0.233,1.103 0.028,3.131c0.047,0.367 0.154,1.632 0.239,2.811c0.188,2.635 0.575,3.208 1.506,2.231c0.331,-0.348 0.352,-0.503 0.274,-2.094l-0.083,-1.719l0.429,-0.164c0.236,-0.089 1.297,-0.153 2.357,-0.141c2.182,0.024 2.512,-0.053 2.512,-0.588c0,-0.698 -0.392,-0.825 -2.694,-0.871c-2.33,-0.047 -2.856,-0.192 -2.774,-0.768c0.05,-0.35 0.127,-0.364 2.052,-0.376c2.823,-0.017 2.887,-0.026 3.33,-0.469c0.363,-0.363 0.432,-1.074 0.109,-1.116c-1.332,-0.172 -7.085,-0.067 -7.285,0.133m21.134,0.051c-1.907,0.677 -2.463,1.54 -1.936,3.005c0.499,1.387 1.087,1.662 4.44,2.08c0.941,0.117 1.362,0.682 1.182,1.584c-0.293,1.463 -3.133,1.545 -4.649,0.134c-0.655,-0.61 -1.409,-0.652 -1.409,-0.077c0,2.418 4.61,3.628 6.73,1.766c2.348,-2.061 0.712,-4.861 -3.063,-5.244c-1.181,-0.12 -1.667,-0.417 -1.667,-1.021c0,-0.883 2.073,-1.093 3.357,-0.34c1.516,0.889 2.317,0.268 1.135,-0.879c-1.238,-1.201 -2.623,-1.54 -4.12,-1.008m-11.56,0.273c-0.369,0.446 -0.32,5.712 0.065,6.812c0.886,2.539 5.919,2.564 7.06,0.035c0.479,-1.062 0.471,-6.367 -0.01,-6.72c-1.075,-0.787 -1.495,-0.101 -1.381,2.257c0.177,3.663 -0.002,4.067 -1.93,4.367c-2.089,0.325 -2.428,-0.258 -2.442,-4.199c-0.009,-2.572 -0.532,-3.554 -1.362,-2.552m19.361,0.185c-0.381,0.309 -0.388,0.357 -0.201,1.291c0.107,0.533 0.195,2.341 0.195,4.016c0,3.81 -0.211,3.565 3.083,3.565c2.57,0 3.084,-0.154 3.084,-0.922c0,-0.741 -0.581,-0.938 -2.143,-0.728c-2.176,0.293 -2.229,0.256 -2.442,-1.713c-0.132,-1.213 0.064,-1.335 2.113,-1.319c1.684,0.013 2.138,-0.143 2.138,-0.735c0,-0.594 -0.457,-0.75 -2.207,-0.75c-1.646,0 -2.016,-0.132 -2.168,-0.773c-0.175,-0.744 0.04,-0.81 2.662,-0.81c2.941,0 3.433,-0.197 2.53,-1.016c-0.546,-0.494 -6.056,-0.582 -6.644,-0.106m175.325,0.164c-1.039,0.531 -1.334,0.901 -1.063,1.333c0.279,0.444 0.769,0.435 1.649,-0.033c2.16,-1.149 4.463,0.672 3.176,2.511c-0.205,0.291 -1.432,0.932 -2.467,1.286c-1.193,0.409 -1.23,3.111 -0.043,3.111c0.464,0 0.607,-0.182 0.834,-1.067c0.091,-0.358 0.279,-0.706 0.416,-0.772c0.138,-0.067 0.625,-0.291 1.084,-0.499c2.059,-0.932 2.684,-2.645 1.697,-4.652c-0.816,-1.659 -3.302,-2.232 -5.283,-1.218m-165.748,-0.169c-0.892,0.214 -1.145,0.875 -0.9,2.349c0.101,0.611 0.182,2.217 0.178,3.569c-0.007,2.883 0.029,2.959 1.378,2.959c3.696,0 6.896,-2.216 6.527,-4.52c-0.364,-2.275 -1.734,-3.368 -5.099,-4.07c-0.688,-0.144 -1.363,-0.285 -1.5,-0.314c-0.138,-0.03 -0.4,-0.017 -0.584,0.027m-54.031,0.355c2.12,1.397 1.781,5.694 -0.481,6.119c-3.157,0.592 -4.708,-4.001 -2.011,-5.955c0.785,-0.569 1.779,-0.634 2.492,-0.164m93.853,0.467c-0.227,0.245 -0.46,0.639 -0.517,0.875c-0.057,0.237 -0.242,0.629 -0.412,0.872c-0.17,0.244 -0.309,0.489 -0.309,0.545c0,0.056 -0.348,0.674 -0.772,1.373c-1.044,1.721 -2.062,3.778 -2.062,4.169c0,0.914 1.385,1.038 1.753,0.157c0.298,-0.712 0.693,-0.776 4.308,-0.693l2.644,0.061l0.493,0.598c0.691,0.838 1.365,0.799 1.683,-0.097c0.059,-0.166 -0.155,-0.698 -0.526,-1.312c-0.609,-1.008 -1.033,-1.573 -2.795,-3.727c-0.472,-0.576 -0.972,-1.266 -1.112,-1.532c-0.794,-1.514 -1.708,-2.009 -2.376,-1.289m7.303,-0.335c-0.426,0.172 0.327,3.012 1.429,5.39c0.106,0.229 0.517,1.242 0.914,2.25c0.739,1.881 0.893,2.051 1.675,1.854c0.366,-0.092 0.805,-0.891 1.599,-2.913c0.193,-0.492 0.528,-1.21 0.744,-1.597c0.654,-1.173 0.723,-1.313 1.078,-2.195c0.554,-1.381 0.613,-2.096 0.201,-2.469c-0.658,-0.595 -1.679,0.381 -1.682,1.606c-0.001,0.21 -0.101,0.568 -0.223,0.797c-1.319,2.484 -1.742,3.167 -1.965,3.167c-0.176,0 -1.567,-2.926 -2.139,-4.5c-0.548,-1.509 -0.801,-1.724 -1.631,-1.39m9.892,0.705c-0.218,0.241 -0.277,0.475 -0.202,0.804c0.058,0.255 0.149,2.039 0.202,3.964c0.118,4.277 -0.005,4.067 2.365,4.062c2.981,-0.005 3.631,-0.106 3.856,-0.6c0.388,-0.853 -0.157,-1.105 -2.3,-1.063c-2.12,0.041 -2.078,0.071 -2.244,-1.59c-0.137,-1.378 -0.049,-1.436 2.128,-1.412c2.154,0.022 2.746,-0.329 1.928,-1.147c-0.288,-0.288 -0.555,-0.333 -1.988,-0.333c-1.832,0 -2.239,-0.184 -2.146,-0.968c0.072,-0.604 0.692,-0.734 2.908,-0.607c2.404,0.137 3.123,-0.196 2.209,-1.024c-0.563,-0.51 -6.266,-0.583 -6.716,-0.086m19.582,0.126c-0.215,0.151 -0.606,0.733 -0.869,1.292c-0.546,1.166 -1.216,2.387 -1.837,3.353c-1.169,1.815 -1.697,3.364 -1.308,3.832c0.271,0.327 0.93,0.317 1.2,-0.017c0.119,-0.146 0.381,-0.446 0.583,-0.667l0.367,-0.4l3.133,0.077c1.723,0.042 3.187,0.079 3.253,0.083c0.066,0.003 0.237,0.23 0.378,0.504c0.506,0.977 1.957,0.672 1.696,-0.358c-0.106,-0.422 -1.36,-2.452 -1.683,-2.723c-0.108,-0.092 -0.51,-0.593 -0.892,-1.113c-0.383,-0.521 -0.778,-0.998 -0.88,-1.06c-0.101,-0.063 -0.437,-0.509 -0.746,-0.992c-1.166,-1.824 -1.748,-2.264 -2.395,-1.811m-72.802,0.876c1.209,0.542 1.263,0.6 1.637,1.76c0.423,1.314 -0.005,1.923 -2.1,2.993c-1.96,1 -2.161,0.878 -2.304,-1.403c-0.054,-0.871 -0.182,-1.973 -0.284,-2.448c-0.367,-1.711 0.606,-1.999 3.051,-0.902m90.12,-0.091c-1.648,1.049 -2.251,2.061 -2.244,3.763c0.013,3.093 1.614,4.678 4.725,4.678c1.07,0 1.109,0.015 1.721,0.685c0.536,0.585 0.694,0.669 1.087,0.574c0.931,-0.224 1.137,-0.95 0.38,-1.341c-0.787,-0.408 -0.815,-0.953 -0.102,-1.989c1.031,-1.496 1.461,-3.062 1.102,-4.006c-0.913,-2.401 -4.573,-3.698 -6.669,-2.364m29.641,-0.139c-1.999,0.548 -2.576,1.722 -1.735,3.528c0.345,0.741 0.494,0.89 1.04,1.034c1.387,0.368 2.167,0.51 2.823,0.514c1.598,0.009 2.256,1.6 1.002,2.422c-0.989,0.648 -3.325,0.276 -4.091,-0.65c-0.979,-1.187 -1.748,-0.374 -1.011,1.069c0.835,1.638 4.778,2.028 6.266,0.621c2.43,-2.298 0.453,-5.307 -3.477,-5.294c-1.044,0.004 -1.62,-0.815 -0.981,-1.394c0.631,-0.57 1.907,-0.546 3.101,0.06c1.212,0.615 1.589,0.58 1.589,-0.15c0,-1.305 -2.557,-2.299 -4.526,-1.76m-20.909,0.448c-0.415,0.802 -0.26,5.561 0.216,6.636c0.639,1.444 1.998,1.98 4.217,1.664c2.642,-0.377 3.085,-1.14 3.085,-5.31l0,-2.904l-0.461,-0.345l-0.461,-0.345l-0.369,0.369c-0.348,0.348 -0.369,0.514 -0.38,3.013c-0.016,3.54 -0.129,3.687 -2.826,3.687c-1.26,0 -1.562,-0.913 -1.579,-4.766c-0.009,-2.176 -0.746,-3.044 -1.442,-1.699m10.036,-0.222c-0.233,0.258 -0.276,0.481 -0.189,0.993c0.061,0.363 0.115,2.093 0.119,3.845c0.01,4.239 -0.156,4.016 2.989,4.016c2.91,0 3.827,-0.373 3.307,-1.346c-0.202,-0.376 -0.059,-0.355 -2.494,-0.382l-1.917,-0.022l0,-1.417l0,-1.417l1.882,-0.083c1.935,-0.086 2.193,-0.186 2.199,-0.855c0.005,-0.55 -0.498,-0.725 -2.208,-0.765c-1.764,-0.041 -2.123,-0.177 -2.123,-0.806c0,-0.565 0.468,-0.663 2.953,-0.616c2.327,0.044 2.739,-0.098 2.451,-0.85c-0.244,-0.635 -6.424,-0.896 -6.969,-0.295m34.17,0.098c-3.85,1.373 -3.92,7.478 -0.105,9.113c3.639,1.559 6.726,-1.99 5.329,-6.125c-0.853,-2.528 -3.027,-3.771 -5.224,-2.988m14.465,0.308c-0.438,0.377 -0.445,0.412 -0.277,1.376c0.152,0.87 0.073,2.218 -0.287,4.863c-0.104,0.767 -3.358,-3.099 -4.097,-4.868c-0.507,-1.215 -1.386,-1.788 -2.038,-1.331c-0.494,0.346 -0.538,5.845 -0.064,7.824c0.327,1.364 1.122,1.789 1.557,0.833c0.198,-0.435 0.189,-0.53 -0.313,-3.122c-0.273,-1.415 0.345,-1.628 1.212,-0.419c0.345,0.481 0.911,1.175 1.256,1.542c0.346,0.366 0.998,1.06 1.448,1.541c1.627,1.739 2.915,1.18 2.83,-1.228c-0.025,-0.722 0.016,-2.298 0.091,-3.501c0.201,-3.229 -0.249,-4.429 -1.318,-3.51m-31.304,0.206c-0.614,0.614 0.143,1.242 1.496,1.242c0.677,0 1.097,0.079 1.223,0.231c0.316,0.381 0.714,3.06 0.742,4.991c0.022,1.576 0.067,1.836 0.348,2.042c1.328,0.971 1.93,-1.454 1.172,-4.723c-0.527,-2.271 -0.221,-2.745 1.546,-2.393c1.416,0.282 2.849,-0.796 1.865,-1.404c-0.419,-0.259 -8.132,-0.246 -8.392,0.014m10.428,0.033c-0.435,0.369 -0.703,7.107 -0.314,7.875c0.296,0.584 1.155,0.662 1.521,0.139c0.291,-0.415 0.354,-3.678 0.124,-6.447c-0.144,-1.731 -0.56,-2.221 -1.331,-1.567m-99.339,0.584c0.109,0.206 0.603,0.852 1.098,1.436c1.469,1.736 1.095,1.998 -2.369,1.662c-1.104,-0.107 -1.11,-0.28 -0.081,-2.029c0.91,-1.547 1.042,-1.651 1.352,-1.069m56.192,0.022c2.077,0.892 2.559,3.193 0.911,4.347c-0.497,0.348 -0.532,0.339 -1.283,-0.34c-1.028,-0.929 -2.104,-0.503 -1.481,0.586c0.306,0.537 0.252,0.677 -0.263,0.676c-1.245,-0.003 -2.243,-1.624 -2.122,-3.445c0.098,-1.454 2.597,-2.53 4.238,-1.824m51.839,0.289c2.832,1.452 2.108,6.498 -0.902,6.28c-2.159,-0.156 -3.371,-2.745 -2.284,-4.878c0.575,-1.128 2.268,-1.873 3.186,-1.402m-70.468,1.584c1.58,1.992 1.212,2.293 -2.213,1.81c-1.175,-0.165 -1.18,-0.202 -0.257,-1.83c0.998,-1.76 1.061,-1.759 2.47,0.02m-68.245,2.552c-0.262,0.49 -0.211,0.75 0.228,1.162c0.822,0.773 1.989,-0.115 1.377,-1.048c-0.361,-0.552 -1.334,-0.621 -1.605,-0.114m156.161,2.678c-0.417,0.416 -0.416,0.517 0.012,1.061c0.403,0.512 0.985,0.568 1.379,0.134c0.823,-0.91 -0.522,-2.065 -1.391,-1.195m-299.593,7.323c-3.003,1.537 -4.323,7.213 -2.387,10.266c1.629,2.567 7.717,2.504 8.622,-0.09c0.452,-1.296 -0.333,-1.558 -1.53,-0.51c-1.841,1.611 -4.958,1.222 -5.91,-0.739c-0.759,-1.563 -0.357,-5.11 0.742,-6.552c1.068,-1.399 3.245,-1.567 4.624,-0.356c0.65,0.571 1.018,0.62 1.259,0.169c0.853,-1.594 -3.303,-3.271 -5.42,-2.188m14.74,3.196c-0.334,0.334 -0.346,0.456 -0.235,2.384c0.15,2.597 0.227,2.518 -2.288,2.359c-2.379,-0.151 -2.291,-0.06 -2.291,-2.348c0,-2.248 -0.255,-2.822 -1.087,-2.443l-0.459,0.209l0.081,3.956c0.085,4.103 0.168,4.58 0.833,4.791c0.717,0.228 1.373,-0.853 1.11,-1.83c-0.072,-0.267 -0.092,-0.548 -0.044,-0.625c0.101,-0.163 2.318,-0.164 3.399,-0.001l0.75,0.113l0,0.804c0,1.1 1.12,1.788 1.724,1.06c0.369,-0.445 -0.084,-7.95 -0.507,-8.401c-0.441,-0.469 -0.542,-0.472 -0.986,-0.028m6.519,0.135l-2.083,0.096l-0.017,3.833c-0.024,5.445 -0.257,5.07 3.164,5.103c2.517,0.025 2.995,-0.082 3.196,-0.717c0.233,-0.734 -0.389,-0.968 -2.345,-0.883c-2.155,0.094 -2.248,0.029 -2.248,-1.578c0,-1.483 0.067,-1.53 2.124,-1.489c1.88,0.037 2.043,-0.018 2.043,-0.688c0,-0.634 -0.765,-0.861 -2.426,-0.721c-1.291,0.109 -1.908,-0.189 -1.908,-0.923c0,-0.627 0.374,-0.714 2.821,-0.663c2.476,0.052 2.805,-0.033 2.601,-0.674c-0.22,-0.695 -1.377,-0.858 -4.922,-0.696m9.667,0.3c-3.098,1.485 -4.357,6.258 -2.062,7.819c1.833,1.247 5.858,1.223 6.433,-0.039c0.405,-0.888 -0.27,-1.106 -2.194,-0.71c-2.751,0.566 -4.468,-1.007 -3.595,-3.293c0.761,-1.994 2.364,-2.877 4.327,-2.383c0.833,0.21 1.424,0.002 1.424,-0.5c0,-0.912 -3.004,-1.532 -4.333,-0.894m26.583,-0.177c-5.742,1.294 -5.006,9.889 0.847,9.889c1.159,0 2.86,-1.409 3.418,-2.833c1.193,-3.039 -1.598,-7.657 -4.265,-7.056m-19.716,0.756c-0.336,0.335 -0.279,7.864 0.062,8.205c0.653,0.653 1.571,0.071 1.571,-0.997c0,-0.82 0.91,-2.075 1.505,-2.075c0.342,0 1.033,0.765 1.489,1.648c0.547,1.059 1.54,1.885 2.192,1.823c0.778,-0.074 0.866,-0.725 0.19,-1.407c-0.605,-0.611 -2.209,-3.265 -2.209,-3.655c0,-0.163 0.483,-0.774 1.074,-1.36c1.175,-1.163 1.371,-1.528 1.096,-2.042c-0.346,-0.646 -0.798,-0.378 -2.837,1.674c-2.311,2.325 -2.369,2.338 -2.553,0.557c-0.076,-0.727 -0.17,-1.485 -0.209,-1.684c-0.147,-0.745 -0.924,-1.134 -1.371,-0.687m26.278,0.243c-0.465,0.563 -0.315,6.319 0.189,7.212c1.255,2.226 5.739,2.025 6.853,-0.307c0.939,-1.965 0.574,-7.015 -0.507,-7.015c-0.735,0 -0.847,0.446 -0.847,3.376c0,3.282 -0.025,3.329 -1.916,3.523c-2.092,0.214 -2.384,-0.256 -2.534,-4.065c-0.115,-2.936 -0.451,-3.675 -1.238,-2.724m8.808,0.295c-0.757,0.757 -0.054,1.429 1.495,1.429c1.174,0 1.385,0.187 1.385,1.228c0,0.321 0.112,1.116 0.249,1.767c0.137,0.651 0.236,1.803 0.22,2.56c-0.034,1.579 0.042,1.778 0.682,1.778c0.99,0 1.327,-0.988 1.023,-3c-0.691,-4.568 -0.779,-4.272 1.244,-4.201c1.227,0.043 1.443,0.007 1.741,-0.291c0.786,-0.786 0.223,-1.594 -0.97,-1.391c-0.917,0.155 -1.374,0.153 -4.444,-0.028c-2.101,-0.123 -2.369,-0.108 -2.625,0.149m31.875,0.137c-0.29,0.309 -0.335,0.508 -0.255,1.125c0.479,3.696 0.354,3.853 -2.74,3.436c-1.84,-0.249 -1.666,-0.02 -1.666,-2.2c0,-2.184 -0.125,-2.569 -0.834,-2.569c-0.728,0 -0.795,0.306 -0.746,3.416c0.054,3.397 0.25,5.212 0.587,5.425c0.845,0.535 1.608,-0.322 1.418,-1.591c-0.131,-0.874 0.038,-0.926 2.491,-0.772l1.667,0.105l0,0.774c0,0.927 0.41,1.476 1.103,1.476c0.767,0 0.85,-0.378 0.655,-2.961c-0.095,-1.259 -0.174,-2.865 -0.174,-3.57c-0.001,-2.183 -0.618,-3.04 -1.506,-2.094m169.574,-0.135c-0.401,0.293 -0.375,11.432 0.028,12.052c0.294,0.451 1.314,0.51 2.439,0.14c0.393,-0.129 0.977,-0.289 1.298,-0.355c1.955,-0.403 3.988,-1.834 4.844,-3.41c0.473,-0.872 0.315,-3.99 -0.244,-4.845c-1.693,-2.587 -3.524,-3.661 -6.38,-3.744c-1.174,-0.034 -1.785,0.016 -1.985,0.162m-185.532,0.353c-0.855,0.599 -0.116,1.298 1.49,1.407l1.223,0.083l0.116,0.667c0.432,2.477 0.604,4.13 0.523,5c-0.114,1.229 0.275,1.766 1.075,1.485c0.894,-0.314 0.921,-2.044 0.099,-6.378c-0.144,-0.761 0.055,-0.851 1.884,-0.854c1.607,-0.003 2.053,-0.182 2.053,-0.822c0,-0.668 -0.532,-0.873 -1.854,-0.715c-0.676,0.082 -1.791,0.089 -2.479,0.018c-2.134,-0.222 -3.717,-0.18 -4.13,0.109m20.63,-0.096c-0.366,0.231 -0.257,8.044 0.121,8.62c0.369,0.563 4.9,0.594 5.607,0.038c1.154,-0.909 0.417,-1.406 -1.995,-1.344l-1.898,0.049l-0.167,-0.441c-0.232,-0.609 -0.211,-2.143 0.032,-2.386c0.131,-0.13 0.821,-0.2 1.994,-0.2c2.008,0 2.398,-0.216 1.993,-1.104c-0.199,-0.437 -0.174,-0.432 -2.218,-0.474c-1.5,-0.031 -1.969,-0.211 -1.969,-0.755c0,-0.634 0.448,-0.75 2.901,-0.75l2.349,0l0.052,-0.447c0.087,-0.753 -0.38,-0.871 -3.635,-0.919c-1.623,-0.024 -3.028,0.026 -3.167,0.113m-50.181,0.467c2.123,1.585 1.25,6.203 -1.172,6.203c-1.559,0 -3.392,-2.215 -2.838,-3.43c0.105,-0.231 0.191,-0.692 0.191,-1.025c0,-1.569 2.516,-2.721 3.819,-1.748m72.437,-0.137c-0.296,0.327 -0.293,1.47 0.01,3.525c0.159,1.079 -0.151,1.212 -2.506,1.074c-2.422,-0.142 -2.16,0.134 -2.26,-2.38c-0.091,-2.278 -0.204,-2.532 -1.038,-2.322c-0.595,0.149 -0.614,0.34 -0.443,4.457c0.162,3.892 0.237,4.251 0.918,4.422c0.682,0.171 1.154,-0.419 1.116,-1.396c-0.045,-1.149 0.066,-1.216 1.84,-1.11c2.342,0.14 2.274,0.108 2.274,1.047c0,1.193 0.884,1.804 1.54,1.064c0.422,-0.475 0.154,-7.585 -0.314,-8.333c-0.288,-0.462 -0.745,-0.481 -1.137,-0.048m7.786,0.095c-0.201,0.141 -0.518,0.603 -0.706,1.027c-0.187,0.424 -1.027,1.963 -1.866,3.419c-1.607,2.789 -1.911,3.774 -1.287,4.176c0.401,0.259 1.141,0.003 1.315,-0.455c0.264,-0.696 0.618,-0.759 3.865,-0.685c1.679,0.038 3.108,0.075 3.174,0.083c0.067,0.007 0.237,0.237 0.378,0.511c0.326,0.629 0.977,0.818 1.425,0.413c0.56,-0.508 0.461,-0.797 -1.06,-3.078c-0.153,-0.229 -0.691,-0.904 -1.196,-1.5c-0.505,-0.596 -1.215,-1.506 -1.578,-2.022c-1.37,-1.951 -1.849,-2.319 -2.464,-1.889m147.099,-0.084c-0.315,0.184 -0.416,1.3 -0.562,6.204c-0.048,1.627 -0.161,3.151 -0.25,3.386c-0.515,1.355 0.003,2.576 0.946,2.228c0.661,-0.245 0.787,-0.895 0.978,-5.073c0.17,-3.697 0.166,-3.694 1.703,-1.407c1.624,2.415 2.017,3.159 2.325,4.41c0.403,1.633 1.519,1.873 2.077,0.447c0.213,-0.546 0.735,-1.633 1.055,-2.2c0.13,-0.229 0.579,-1.054 0.999,-1.833c0.42,-0.779 0.83,-1.529 0.913,-1.667c0.082,-0.137 0.317,-0.539 0.521,-0.893c0.63,-1.094 0.737,-0.516 0.737,3.97l0,3.993l0.439,0.247c0.395,0.222 0.484,0.218 0.875,-0.039l0.436,-0.285l-0.003,-3.122c-0.009,-8.999 -1.313,-10.783 -4.001,-5.473c-2.539,5.018 -2.704,5.219 -3.39,4.144c-0.219,-0.344 -1.018,-1.6 -1.775,-2.792c-2.277,-3.582 -2.492,-3.894 -2.873,-4.16c-0.416,-0.292 -0.753,-0.317 -1.15,-0.085m-135.88,0.326c-0.688,0.221 -2.537,2.091 -3.051,3.086c-0.732,1.417 -0.546,3.246 0.455,4.476c1.17,1.438 6.101,1.646 6.827,0.288c0.313,-0.583 -0.061,-1.074 -0.715,-0.94c-3.548,0.726 -5.277,0.073 -5.277,-1.991c0,-2.226 1.625,-3.685 3.944,-3.54c1.56,0.097 2.122,-0.109 1.791,-0.658c-0.407,-0.674 -2.779,-1.104 -3.974,-0.721m16.181,0.475c-0.247,0.273 -0.258,0.527 -0.103,2.375c0.096,1.138 0.125,2.857 0.065,3.819c-0.156,2.515 -0.135,2.534 2.692,2.599c2.557,0.058 3.356,-0.099 3.504,-0.69c0.205,-0.817 -0.126,-0.941 -2.175,-0.815c-2.195,0.135 -2.169,0.152 -2.329,-1.541c-0.142,-1.494 -0.063,-1.553 2.117,-1.553c1.634,0 2.12,-0.199 2.12,-0.867c0,-0.559 -0.501,-0.716 -2.289,-0.716c-1.87,0 -2.284,-0.184 -2.089,-0.93c0.158,-0.603 0.64,-0.703 2.812,-0.579c2.67,0.152 3.521,-0.265 2.191,-1.076c-0.792,-0.483 -6.083,-0.505 -6.516,-0.026m9.642,-0.128c-1.156,0.344 -1.201,1.6 -0.275,7.641c0.318,2.078 1.974,1.746 1.738,-0.348c-0.112,-0.997 0.411,-1.323 2.3,-1.435l1.264,-0.075l0.924,0.901c0.617,0.603 0.964,1.093 1.046,1.478c0.343,1.611 1.752,1.599 1.752,-0.015c0,-0.831 -0.434,-1.584 -1.478,-2.564c-0.662,-0.621 -0.654,-0.803 0.068,-1.646c1.403,-1.639 0.598,-3.059 -2.148,-3.79c-1.282,-0.341 -4.258,-0.425 -5.191,-0.147m21.924,-0.019c-0.133,0.084 -0.611,0.203 -1.062,0.265c-3.038,0.418 -4.473,6.293 -2.081,8.525c1.004,0.938 3.416,1.335 4.885,0.806c0.367,-0.132 0.905,-0.243 1.196,-0.247c1.502,-0.021 1.766,-4.785 0.296,-5.344c-0.545,-0.207 -3.753,-0.215 -4.292,-0.01c-1.452,0.552 -0.261,1.648 1.567,1.441c1.412,-0.16 1.816,0.112 1.816,1.222c0,2.004 -3.833,2.034 -4.697,0.036c-1.199,-2.775 1.202,-5.875 3.832,-4.947c0.773,0.272 1.125,0.21 1.366,-0.241c0.424,-0.791 -1.953,-2.058 -2.826,-1.506m-40.969,0.314c-0.251,0.159 -0.406,7.584 -0.169,8.069c0.428,0.879 1.499,0.265 1.705,-0.977c0.125,-0.758 1.129,-2.065 1.586,-2.065c0.15,0 0.528,0.418 0.847,0.935c0.927,1.506 1.96,2.565 2.501,2.565c1.189,0 1.279,-0.435 0.307,-1.498c-0.377,-0.412 -0.86,-1.087 -1.075,-1.5c-0.215,-0.414 -0.544,-0.977 -0.731,-1.252c-0.485,-0.711 -0.475,-0.734 0.904,-2.186c1.323,-1.393 1.405,-1.555 0.991,-1.968c-0.505,-0.506 -0.89,-0.279 -2.811,1.654c-2.52,2.537 -2.761,2.536 -2.761,-0.001c0,-1.697 -0.448,-2.313 -1.294,-1.776m121.203,0.458c4.762,2.394 3.595,7.726 -1.864,8.512c-0.895,0.129 -0.819,0.456 -1.045,-4.52c-0.18,-3.952 -0.174,-4.172 0.114,-4.388c0.452,-0.339 1.677,-0.166 2.795,0.396m-73.863,0.355c-0.416,0.635 -0.413,4.849 0.003,6.235c0.527,1.752 1.753,2.468 3.836,2.241c3.146,-0.344 3.613,-1.06 3.614,-5.541c0.001,-2.913 -0.085,-3.221 -0.907,-3.221c-0.733,0 -0.825,0.346 -0.791,2.973c0.047,3.583 -0.016,3.687 -2.395,3.967c-1.608,0.189 -1.905,-0.417 -2.011,-4.096c-0.088,-3.031 -0.513,-3.837 -1.349,-2.558m14.501,-0.125c-0.498,0.213 -0.619,0.81 -0.453,2.233c0.076,0.654 0.148,2.232 0.16,3.505c0.03,3.267 0.151,3.38 3.051,2.836c0.778,-0.145 1.684,-0.435 2.013,-0.643c0.33,-0.208 0.952,-0.577 1.383,-0.821c1.801,-1.016 2.013,-2.587 0.665,-4.918c-0.741,-1.279 -5.429,-2.787 -6.819,-2.192m10.069,-0.029c-0.494,0.103 -0.579,0.678 -0.414,2.785c0.086,1.1 0.112,2.686 0.058,3.525c-0.171,2.666 -0.111,2.719 3.093,2.722c2.493,0.003 3.314,-0.213 3.314,-0.871c0,-0.63 -0.488,-0.77 -2.343,-0.672c-2.276,0.12 -2.324,0.089 -2.324,-1.524c0,-1.576 0.029,-1.597 2.194,-1.597c1.954,0 2.264,-0.15 1.961,-0.953c-0.174,-0.46 -0.499,-0.536 -2.488,-0.589l-1.583,-0.041l0,-0.667l0,-0.666l0.916,-0.119c0.504,-0.065 1.499,-0.048 2.21,0.037c1.949,0.235 2.839,-0.359 1.678,-1.119c-0.421,-0.276 -5.233,-0.469 -6.272,-0.251m17.784,0.299c-2.555,1.348 -3.268,4.137 -1.806,7.069c1.633,3.277 6.564,2.818 7.5,-0.699c1.141,-4.286 -2.314,-8.152 -5.694,-6.37m-32.215,-0.112c-0.419,0.265 -0.449,7.708 -0.033,8.084c0.452,0.41 1.213,0.286 1.459,-0.236c0.281,-0.598 0.053,-7.352 -0.261,-7.731c-0.244,-0.293 -0.798,-0.349 -1.165,-0.117m-34.597,0.409c2.536,0.454 2.948,1.406 1.031,2.382c-0.906,0.462 -2.806,0.713 -3.697,0.49c-0.428,-0.108 -0.435,-0.131 -0.387,-1.392c0.067,-1.771 0.435,-1.949 3.053,-1.48m74.977,-0.074c-0.533,0.23 -0.562,0.465 -0.398,3.216c0.266,4.467 0.669,5.958 1.549,5.737c0.476,-0.119 0.612,-0.502 0.615,-1.726c0.003,-1.089 0.212,-1.222 2.098,-1.34c1.839,-0.115 3.571,1.067 3.571,2.436c0,0.392 0.419,0.857 0.773,0.857c1.39,0 1.244,-1.609 -0.298,-3.305c-0.966,-1.063 -0.971,-1.111 -0.215,-1.995c1.168,-1.364 0.829,-2.532 -1.002,-3.446c-1.05,-0.525 -5.774,-0.831 -6.693,-0.434m-113.981,1.694c1.986,2.332 1.773,2.547 -2.042,2.056c-1.092,-0.141 -1.102,-0.264 -0.167,-1.95c0.869,-1.565 0.963,-1.569 2.209,-0.106m81.096,-0.528c3.664,1.226 3.965,3.609 0.654,5.169c-2.123,1.001 -2.248,0.865 -2.408,-2.61c-0.148,-3.215 -0.159,-3.2 1.754,-2.559m27.798,0.104c1.038,0.873 1.306,1.751 1.215,3.973c-0.095,2.326 -3.367,2.894 -4.707,0.818c-1.662,-2.576 1.299,-6.637 3.492,-4.791m10.022,0.363c2.954,0.959 0.721,2.958 -3,2.685l-0.75,-0.055l-0.049,-1.224c-0.029,-0.731 0.026,-1.314 0.137,-1.448c0.365,-0.44 2.243,-0.418 3.662,0.042m-171.125,15.73c-0.455,0.169 -0.466,0.522 -0.041,1.4c0.177,0.367 0.324,0.765 0.327,0.884c0.006,0.218 0.229,0.738 1.278,2.983c0.309,0.661 0.561,1.264 0.561,1.34c0,0.179 2.636,5.389 2.868,5.667c0.702,0.846 1.426,-0.143 2.571,-3.512c0.41,-1.208 0.967,-2.667 1.237,-3.244c0.27,-0.578 0.491,-1.119 0.491,-1.204c0,-0.085 0.145,-0.476 0.322,-0.868c0.178,-0.392 0.478,-1.055 0.667,-1.474c0.413,-0.912 0.424,-1.134 0.085,-1.618c-0.737,-1.052 -1.549,0.203 -3.172,4.907c-0.236,0.684 -0.638,1.67 -0.893,2.191c-0.255,0.521 -0.514,1.16 -0.576,1.418c-0.062,0.259 -0.202,0.44 -0.312,0.404c-0.25,-0.084 -1.491,-2.563 -1.897,-3.791c-0.167,-0.504 -0.508,-1.272 -0.758,-1.706c-0.25,-0.434 -0.612,-1.184 -0.804,-1.667c-0.809,-2.034 -1.155,-2.408 -1.954,-2.11m20.256,0.025c-0.223,0.174 -0.281,0.748 -0.352,3.494c-0.046,1.807 -0.139,3.374 -0.206,3.482c-0.207,0.334 -5.64,-0.196 -6.033,-0.589c-0.057,-0.058 -0.015,-1.022 0.096,-2.142c0.279,-2.835 0.26,-3.329 -0.148,-3.848c-0.909,-1.156 -1.261,-0.424 -1.389,2.895c-0.059,1.512 -0.151,3.884 -0.206,5.271c-0.117,2.993 0.031,3.729 0.754,3.729c0.744,0 0.853,-0.259 0.853,-2.028c0,-2.114 0.372,-2.333 2.917,-1.719c0.55,0.133 1.314,0.243 1.697,0.244c1.411,0.005 1.571,0.167 1.45,1.467c-0.135,1.457 0.181,2.202 0.935,2.202c0.7,0 0.858,-0.425 0.923,-2.477c0.03,-0.975 0.07,-1.885 0.087,-2.023c0.018,-0.137 -0.056,-0.98 -0.164,-1.872c-0.141,-1.172 -0.147,-1.887 -0.02,-2.573c0.498,-2.697 -0.076,-4.387 -1.194,-3.513m-46.436,2.711c-0.34,0.431 -0.372,2.246 -0.099,5.581c0.049,0.596 0.108,1.449 0.132,1.896c0.063,1.193 0.75,1.626 1.458,0.918c0.291,-0.291 0.339,-0.496 0.275,-1.167c-0.11,-1.142 -0.011,-1.188 2.233,-1.03l1.89,0.133l0.089,0.893c0.232,2.312 1.949,1.775 1.766,-0.552c-0.057,-0.738 -0.154,-2.522 -0.214,-3.964c-0.093,-2.227 -0.155,-2.664 -0.411,-2.895c-0.757,-0.685 -1.583,0.283 -1.317,1.544c0.63,2.992 0.526,3.151 -2.018,3.098c-2.543,-0.053 -2.448,0.033 -2.452,-2.227c-0.004,-2.451 -0.502,-3.283 -1.332,-2.228m-8.884,-0.138c-2.036,0.146 -1.789,1.552 0.273,1.552c1.224,0 1.583,0.239 1.584,1.054c0,0.291 0.119,1.204 0.265,2.029c0.173,0.983 0.228,1.882 0.158,2.607c-0.165,1.709 1.087,2.456 1.691,1.009c0.256,-0.612 0.253,-0.662 -0.315,-4.83c-0.242,-1.769 -0.213,-1.799 1.633,-1.742c1.652,0.052 2.067,-0.107 2.067,-0.79c0,-0.7 -0.185,-0.754 -2.583,-0.754c-1.192,0 -2.542,-0.045 -3,-0.101c-0.459,-0.055 -1.256,-0.071 -1.773,-0.034m20.897,0.009c-1.617,0.077 -1.694,0.204 -1.539,2.53c0.063,0.955 0.092,2.595 0.063,3.644c-0.051,1.829 0.148,2.842 0.564,2.88c2.672,0.242 5.305,0.033 5.658,-0.45c0.68,-0.93 0.06,-1.249 -2.176,-1.121c-2.288,0.13 -2.314,0.111 -2.244,-1.633l0.05,-1.224l1.823,-0.047c1.921,-0.05 2.26,-0.17 2.26,-0.795c0,-0.746 -0.386,-0.908 -2.167,-0.908c-1.999,0 -2.517,-0.293 -1.928,-1.093c0.219,-0.297 0.427,-0.32 2.576,-0.28c2.224,0.042 2.348,0.027 2.525,-0.304c0.58,-1.085 -0.924,-1.415 -5.465,-1.199m172.946,0.418c-0.454,1.486 -0.52,7.157 -0.096,8.174c0.611,1.462 1.533,0.674 1.375,-1.175c-0.061,-0.71 -0.113,-2.489 -0.116,-3.953c-0.003,-1.62 -0.074,-2.746 -0.181,-2.875c-0.146,-0.175 -0.938,-0.313 -0.982,-0.171m-118.378,0.849c-0.243,0.243 -0.287,0.457 -0.206,1.001c0.056,0.38 0.108,2.142 0.114,3.915c0.016,4.136 -0.204,3.86 3.077,3.86c2.622,0 3.39,-0.197 3.403,-0.875c0.012,-0.586 -0.654,-0.774 -2.4,-0.675c-2.215,0.126 -2.264,0.092 -2.264,-1.548c0,-1.548 0.147,-1.655 2.092,-1.518c1.477,0.105 2.075,-0.102 2.075,-0.715c0,-0.674 -0.427,-0.836 -2.22,-0.838c-1.974,-0.003 -2.158,-0.078 -2.084,-0.848c0.068,-0.717 1.243,-0.943 3.358,-0.645c1.787,0.252 2.602,-0.203 1.763,-0.984c-0.677,-0.631 -6.102,-0.736 -6.708,-0.13m-8.685,-0.105c-2.258,0.125 -2.232,1.548 0.027,1.548c0.603,0 1.078,0.083 1.181,0.208c0.278,0.336 0.693,2.846 0.811,4.904c0.126,2.203 0.349,2.59 1.229,2.135c0.733,-0.379 0.845,-2.796 0.221,-4.779c-0.136,-0.43 -0.223,-1.105 -0.195,-1.5l0.052,-0.718l1.715,-0.084c1.812,-0.088 2.027,-0.189 2.032,-0.954c0.005,-0.599 -0.63,-0.908 -1.416,-0.69c-0.585,0.161 -2.886,0.123 -4.081,-0.067c-0.229,-0.037 -0.939,-0.038 -1.576,-0.003m20.962,0.256c-0.187,0.206 -0.548,0.825 -0.803,1.375c-0.256,0.55 -0.765,1.487 -1.132,2.083c-1.022,1.657 -2.118,3.936 -2.118,4.403c0,0.88 1.337,0.985 1.711,0.134c0.305,-0.694 0.327,-0.698 3.739,-0.701l3.2,-0.002l0.434,0.569c0.549,0.719 0.862,0.838 1.356,0.514c0.79,-0.517 0.317,-1.492 -2.396,-4.939c-0.748,-0.95 -1.708,-2.196 -2.133,-2.769c-0.855,-1.154 -1.28,-1.306 -1.858,-0.667m8.993,0.075c-0.536,0.817 -0.77,7.655 -0.286,8.346c0.874,1.248 1.875,-0.176 1.549,-2.202c-0.187,-1.165 -0.05,-2.261 0.284,-2.261c0.318,0 1.743,2.174 2.335,3.563c0.685,1.605 1.739,2.145 2.156,1.104c0.333,-0.833 2.127,-4.258 2.381,-4.546c0.405,-0.459 0.595,-0.095 0.64,1.227c0.035,1.065 0.208,2.135 0.536,3.316c0.14,0.502 0.905,0.827 1.326,0.563c0.35,-0.219 0.458,-1.245 0.185,-1.755c-0.114,-0.212 -0.259,-1.543 -0.334,-3.049c-0.205,-4.152 -0.845,-5.434 -1.979,-3.964c-0.646,0.837 -2.796,4.202 -3.001,4.697c-0.35,0.846 -0.595,0.744 -1.621,-0.676c-1.787,-2.473 -2.383,-3.403 -2.383,-3.719c0,-0.927 -1.296,-1.394 -1.788,-0.644m23.675,-0.111c-5.407,1.082 -4.585,9.669 0.925,9.659c3.758,-0.006 5.338,-5.422 2.448,-8.395c-1.142,-1.175 -2.073,-1.524 -3.373,-1.264m13.713,0.546c-0.354,0.353 -0.383,0.479 -0.259,1.131c0.156,0.818 -0.132,4.805 -0.365,5.06c-0.337,0.37 -2.701,-2.42 -3.807,-4.493c-0.93,-1.742 -1.781,-2.335 -2.356,-1.642c-0.494,0.595 -0.167,8.205 0.375,8.748c0.995,0.995 1.763,-0.787 1.062,-2.465c-0.677,-1.619 -0.008,-2.935 0.799,-1.571c0.154,0.262 0.724,0.966 1.266,1.563c0.541,0.598 1.048,1.188 1.126,1.31c0.79,1.245 2.376,1.835 3.034,1.129c0.398,-0.428 0.725,-7.804 0.374,-8.459c-0.347,-0.647 -0.8,-0.76 -1.249,-0.311m13.124,0.096c-1.677,0.291 -2.776,1.632 -2.392,2.916c0.447,1.49 0.907,1.803 3.084,2.099c2.231,0.302 2.764,0.62 2.745,1.637c-0.027,1.45 -3.097,1.69 -4.61,0.361c-1.06,-0.93 -1.842,-0.526 -1.301,0.672c1.102,2.445 5.875,2.533 7.101,0.132c1.089,-2.133 -0.196,-3.93 -3.071,-4.294c-1.488,-0.189 -2.04,-0.388 -2.27,-0.818c-0.674,-1.259 2.032,-1.605 3.698,-0.474c1.032,0.7 1.746,-0.137 0.883,-1.037c-0.922,-0.963 -2.461,-1.438 -3.867,-1.194m18.898,0.561c-0.151,0.114 -0.57,0.81 -0.932,1.547c-0.361,0.736 -0.901,1.749 -1.2,2.25c-1.927,3.231 -2.318,4.206 -1.881,4.69c0.448,0.495 1.021,0.385 1.408,-0.272c0.444,-0.751 0.703,-0.817 2.983,-0.752c1.054,0.029 2.416,0.04 3.027,0.023c1.095,-0.03 1.115,-0.023 1.46,0.535c0.618,0.999 1.679,0.917 1.679,-0.13c0,-0.572 -0.978,-2.209 -2.06,-3.448c-0.527,-0.603 -1.11,-1.358 -2.532,-3.28c-0.992,-1.339 -1.4,-1.582 -1.952,-1.163m-11.583,0.166c-0.346,0.43 -0.408,1.442 -0.29,4.741c0.137,3.838 0.224,4.119 1.267,4.094c3.773,-0.091 5.056,-0.321 5.346,-0.957c0.383,-0.841 0.175,-0.923 -2.064,-0.811c-2.988,0.149 -2.858,0.313 -2.965,-3.766c-0.068,-2.589 -0.13,-3.218 -0.333,-3.346c-0.35,-0.22 -0.762,-0.201 -0.961,0.045m22.211,0.417c-3.586,2.632 -3.869,6.806 -0.548,8.052c1.369,0.514 3.969,0.576 4.677,0.112c1.565,-1.024 1.135,-1.74 -0.87,-1.447c-4.258,0.623 -5.779,-1.391 -3.446,-4.562c0.879,-1.193 1.699,-1.4 4.044,-1.02c0.73,0.119 1.038,-0.187 0.804,-0.797c-0.33,-0.86 -3.625,-1.099 -4.661,-0.338m-54.034,0.451c1.792,1.792 0.851,5.757 -1.366,5.757c-1.835,0 -3.286,-1.722 -2.922,-3.468c0.07,-0.338 0.111,-0.683 0.091,-0.767c-0.417,-1.708 2.833,-2.886 4.197,-1.522m61.476,-0.142c-0.532,0.373 -0.566,7.944 -0.037,8.227c0.83,0.444 1.511,-0.08 1.511,-1.163c0,-0.482 0.138,-0.73 0.721,-1.303c0.898,-0.881 1.075,-0.827 2.03,0.619c1.131,1.713 1.969,2.457 2.54,2.257c0.703,-0.247 0.678,-0.782 -0.077,-1.641c-0.354,-0.402 -0.791,-1.016 -0.97,-1.365c-0.18,-0.349 -0.496,-0.891 -0.702,-1.206c-0.539,-0.823 -0.499,-0.94 0.792,-2.298c1.153,-1.215 1.355,-1.639 0.966,-2.028c-0.394,-0.394 -0.932,-0.208 -1.661,0.573c-1.975,2.114 -3.331,3.257 -3.576,3.013c-0.057,-0.058 -0.142,-0.801 -0.188,-1.653c-0.046,-0.852 -0.162,-1.647 -0.257,-1.767c-0.347,-0.434 -0.721,-0.525 -1.092,-0.265m-95.172,0.608c0.11,0.206 0.599,0.825 1.089,1.375c1.481,1.665 0.858,2.187 -2.024,1.692c-1.444,-0.247 -1.472,-0.347 -0.554,-1.952c0.929,-1.622 1.138,-1.778 1.489,-1.115m78.406,1.583c0.164,0.252 0.386,0.533 0.492,0.625c2.008,1.731 1.668,2.536 -0.984,2.334c-2.267,-0.173 -2.235,-0.104 -1.049,-2.209c0.748,-1.328 1.065,-1.482 1.541,-0.75m-249.465,1.66c-0.148,0.164 -0.479,0.786 -0.736,1.382c-3.11,7.211 -11.721,14.92 -24.33,21.778c-1.028,0.559 -1.523,0.983 -1.349,1.156c0.164,0.165 6.083,1.234 9.287,1.677c2.981,0.413 12.931,0.432 15,0.03c0.779,-0.152 2.167,-0.403 3.083,-0.558c0.917,-0.154 2.042,-0.418 2.5,-0.585c0.459,-0.167 1.659,-0.583 2.667,-0.924c2.787,-0.943 6.558,-3.312 9.456,-5.942c1.409,-1.278 4.205,-5.33 3.855,-5.586c-0.787,-0.576 -1.537,-0.122 -2.817,1.704c-3.275,4.673 -10.129,8.738 -16.577,9.832c-0.871,0.147 -1.846,0.337 -2.167,0.421c-2.708,0.711 -11.223,0.507 -17.213,-0.413c-2.97,-0.456 -2.951,-0.627 0.268,-2.405c7.975,-4.405 16.115,-12.176 19.474,-18.593c0.58,-1.107 0.233,-3.676 -0.401,-2.974m275.981,3.686c-0.518,0.573 -0.134,1.425 0.56,1.243c0.319,-0.083 0.831,-0.641 0.831,-0.906c0,-0.565 -0.971,-0.8 -1.391,-0.337" id="svg_4"/>
    <path fill-rule="evenodd" fill="#ffffff" d="m0,78.167l0,78.166l195.719,0l195.72,0l2.697,-2.759c1.484,-1.518 2.697,-2.868 2.697,-3c0,-0.132 0.069,-0.241 0.152,-0.241c0.084,0 0.569,-0.543 1.078,-1.208c0.509,-0.665 1.151,-1.471 1.427,-1.792l0.501,-0.583l0.005,-73.375l0.004,-73.375l-200,0l-200,0l0,78.167m216.25,-75.915c5.867,0.133 12.392,0.352 14.5,0.488c2.108,0.135 5.896,0.365 8.417,0.509c16.729,0.961 46.364,5.073 60,8.327c3.171,0.756 5.148,1.223 9.583,2.26c3.247,0.76 6.263,1.584 11.583,3.166c0.871,0.259 2.8,0.82 4.286,1.247c14.635,4.202 33.105,12.357 44.57,19.679c5.247,3.351 5.594,3.607 11.891,8.755c2.198,1.797 7.623,7.64 9.406,10.13c9.801,13.692 9.726,28.301 -0.214,42.027c-1.696,2.341 -7.616,8.618 -9.457,10.027c-0.515,0.394 -1.854,1.466 -2.977,2.383c-3.209,2.62 -3.639,2.925 -8.671,6.154c-15.629,10.03 -37.941,18.738 -63.732,24.872c-6.827,1.624 -11.168,2.52 -21.602,4.459c-10.762,2.001 -33.503,4.714 -44.833,5.349c-2.521,0.142 -6.271,0.367 -8.333,0.502c-3.223,0.211 -11.689,0.464 -21,0.629c-4.661,0.083 -21.32,-0.221 -26,-0.474c-11.632,-0.628 -16.56,-0.973 -22.75,-1.589c-3.667,-0.365 -7.83,-0.776 -9.25,-0.913c-2.684,-0.259 -17.648,-2.331 -21,-2.909c-1.055,-0.181 -3.68,-0.66 -5.834,-1.064c-2.154,-0.404 -5.379,-1.008 -7.166,-1.341c-2.878,-0.537 -6.582,-1.379 -16.584,-3.769c-1.558,-0.372 -4.895,-1.278 -7.416,-2.013c-2.521,-0.734 -5.746,-1.672 -7.167,-2.084c-10.486,-3.041 -31.685,-11.718 -35.472,-14.52c-1.414,-1.045 0.792,-0.719 3.15,0.467c22.823,11.475 53.842,20.215 87.489,24.651c20.356,2.684 30.587,3.468 54.75,4.194c13.902,0.418 39.584,-0.48 53.083,-1.856c28.452,-2.901 48.908,-6.567 69.2,-12.402c59.547,-17.122 88.303,-45.723 74.413,-74.01c-11.963,-24.36 -56.557,-45.678 -114.196,-54.59c-4.752,-0.735 -13.125,-1.832 -20.25,-2.653c-13.226,-1.524 -16.139,-1.75 -31,-2.412c-21.692,-0.966 -46.563,-0.484 -64.334,1.245c-39.193,3.815 -68.807,10.297 -95.029,20.804c-51.205,20.515 -67.552,51.307 -41.378,77.94c2.797,2.845 3.464,3.916 2.44,3.916c-0.343,0 -6.542,-6.484 -7.812,-8.172c-10.573,-14.049 -10.865,-28.796 -0.849,-42.854c1.994,-2.8 7.974,-9.102 10.378,-10.939c1.167,-0.892 2.22,-1.734 5.268,-4.214c2.259,-1.838 10.59,-6.865 16.066,-9.694c16.649,-8.604 41.617,-16.952 63.35,-21.182c11.397,-2.218 15.557,-2.929 24.483,-4.188c10.576,-1.492 24.389,-2.918 33.15,-3.423c3.291,-0.189 7.153,-0.423 8.583,-0.519c2.044,-0.138 14.978,-0.494 22.434,-0.618c0.641,-0.011 5.966,0.089 11.833,0.222m-155.792,49.12c0.237,0.192 0.271,0.771 0.066,1.095c-0.1,0.158 -0.883,0.241 -2.873,0.302c-3.657,0.114 -3.485,0.063 -3.482,1.026c0.004,1.32 -0.047,1.3 2.846,1.081c3.083,-0.235 3.624,-0.034 3.165,1.173l-0.163,0.427l-2.586,0.054c-3.387,0.07 -3.17,-0.157 -3.219,3.351c-0.046,3.194 -0.361,3.829 -1.506,3.028c-0.393,-0.275 -0.589,-11.198 -0.209,-11.656c0.196,-0.235 7.662,-0.124 7.961,0.119m143.388,2.479c3.083,1.125 2.918,4.527 -0.303,6.232c-0.781,0.414 -0.969,0.601 -1.091,1.084c-0.415,1.645 -1.785,1.507 -1.785,-0.18c0,-1.035 0.543,-1.706 1.707,-2.11c1.243,-0.431 1.959,-1.161 1.959,-1.999c0,-1.711 -1.765,-2.351 -3.748,-1.361c-0.875,0.437 -1.3,0.322 -1.385,-0.376c-0.148,-1.225 2.674,-2.009 4.646,-1.29m20.265,0.062c0.541,0.379 0.53,11.803 -0.012,12.182c-0.939,0.658 -1.432,0.077 -1.432,-1.684c0,-1.768 0.069,-1.724 -3.073,-1.952c-3.107,-0.226 -2.948,-0.321 -2.943,1.764c0.005,1.769 -0.144,2.025 -1.118,1.912c-0.64,-0.074 -0.84,-2.309 -0.524,-5.885c0.122,-1.375 0.226,-3.25 0.231,-4.167c0.011,-1.876 0.086,-2.083 0.749,-2.083c0.837,0 0.891,0.229 0.823,3.458l-0.062,2.957l1.25,0.192c2.373,0.366 4.245,0.45 4.451,0.202c0.116,-0.14 0.224,-1.432 0.283,-3.392c0.089,-2.965 0.117,-3.186 0.449,-3.459c0.43,-0.354 0.483,-0.356 0.928,-0.045m-154.856,0.662c0.377,0.157 0.578,0.354 0.578,0.563c0,0.638 -0.37,0.732 -2.451,0.619c-2.248,-0.122 -2.939,0.005 -3.02,0.555c-0.105,0.72 0.216,0.855 2.038,0.855c2.213,0 2.962,0.472 2.158,1.362c-0.233,0.257 -0.541,0.304 -1.98,0.304c-2.088,0 -2.124,0.03 -1.974,1.642c0.132,1.426 0.084,1.4 2.485,1.328c1.83,-0.055 2.069,0.027 2.075,0.713c0.007,0.716 -0.579,0.898 -3.09,0.958c-3.361,0.08 -3.217,0.254 -3.228,-3.902c-0.005,-1.722 -0.059,-3.504 -0.119,-3.961c-0.164,-1.233 -0.05,-1.278 3.227,-1.278c2.001,0 2.877,0.064 3.301,0.242m9.186,0.101c0.738,0.28 0.89,0.636 0.459,1.067c-0.23,0.23 -0.565,0.252 -2.385,0.156c-2.337,-0.124 -2.848,-0.003 -2.848,0.67c0,0.682 0.405,0.84 2.162,0.844c1.806,0.004 2.222,0.18 2.138,0.906c-0.05,0.43 -0.054,0.431 -2.05,0.533c-1.1,0.057 -2.019,0.113 -2.042,0.125c-0.023,0.013 -0.042,0.614 -0.042,1.336c0,1.75 0.022,1.765 2.338,1.633c1.799,-0.103 1.831,-0.099 2.09,0.297c0.678,1.035 -0.209,1.424 -3.246,1.424c-3.083,0 -2.921,0.194 -2.965,-3.559c-0.018,-1.572 -0.075,-3.359 -0.125,-3.971c-0.135,-1.632 -0.169,-1.615 3.23,-1.628c1.625,-0.006 3.016,0.064 3.286,0.167m3.908,0.339c0.309,0.309 0.337,0.475 0.244,1.459c-0.129,1.38 0.137,4.951 0.393,5.259c0.273,0.329 2.524,0.511 3.27,0.265c1.227,-0.405 1.845,0.262 1.097,1.185c-0.399,0.493 -5.138,0.821 -5.788,0.401c-0.676,-0.437 -0.888,-7.927 -0.244,-8.572c0.433,-0.433 0.592,-0.433 1.028,0.003m13.251,0.069c0.229,0.23 0.545,0.699 0.701,1.042c0.842,1.849 3.665,5.308 4.032,4.941c0.293,-0.293 0.539,-2.785 0.437,-4.41c-0.111,-1.748 -0.02,-1.99 0.743,-1.99c0.807,0 0.838,0.174 0.803,4.443c-0.036,4.324 -0.074,4.513 -0.972,4.886c-0.643,0.266 -1.477,-0.247 -2.547,-1.566c-0.377,-0.466 -0.92,-1.072 -1.207,-1.347c-0.286,-0.275 -0.734,-0.818 -0.995,-1.208c-1.037,-1.55 -1.333,-0.664 -0.745,2.235c0.329,1.62 -0.686,2.637 -1.458,1.46c-0.361,-0.552 -0.57,-7.927 -0.241,-8.54c0.263,-0.492 0.927,-0.467 1.449,0.054m15.348,-0.092c1.472,0.897 1.058,1.58 -0.86,1.42c-2.07,-0.172 -3.02,0.409 -3.668,2.245c-0.914,2.591 0.572,4.466 3.192,4.027c1.637,-0.274 1.555,-0.208 1.555,-1.244c0,-1.161 -0.149,-1.273 -1.689,-1.273c-1.616,0 -2.145,-0.183 -2.145,-0.74c0,-0.533 0.432,-0.76 1.448,-0.761c0.441,-0.001 1.088,-0.08 1.436,-0.177c1.659,-0.461 2.532,0.301 2.773,2.42c0.285,2.511 0.041,2.885 -2.187,3.342c-5.038,1.032 -7.921,-2.555 -5.594,-6.962c0.892,-1.69 1.408,-2.093 3.208,-2.507c0.859,-0.198 2.02,-0.101 2.531,0.21m-20.174,0.252c0.731,0.512 0.979,7.479 0.291,8.167c-0.331,0.331 -0.965,0.327 -1.243,-0.007c-0.357,-0.431 -0.234,-7.914 0.135,-8.196c0.345,-0.263 0.394,-0.261 0.817,0.036m46.385,0.417c3.83,2.458 2.73,9.152 -1.507,9.168c-4.964,0.019 -6.517,-7.267 -1.985,-9.316c1.168,-0.528 2.527,-0.471 3.492,0.148m-8.873,-0.076c1.967,0.584 1.129,1.679 -0.944,1.235c-3.14,-0.674 -5.643,4.605 -2.67,5.629c0.755,0.26 1.876,0.265 3.326,0.017c1.5,-0.257 1.911,-0.01 1.406,0.844c-0.858,1.452 -5.597,1.214 -6.913,-0.348c-1.611,-1.911 -0.665,-5.173 2.076,-7.158c0.77,-0.558 2.279,-0.647 3.719,-0.219m21.257,0.415c0.249,0.498 0.278,0.876 0.193,2.583c-0.055,1.1 -0.117,2.839 -0.138,3.865c-0.046,2.161 -0.154,2.385 -1.16,2.387c-0.715,0.001 -3.26,-2.345 -4.343,-4.004c-0.436,-0.667 -0.892,-1.089 -1.03,-0.952c-0.278,0.278 -0.237,1.481 0.087,2.53c0.539,1.745 -0.393,3.29 -1.314,2.18c-0.35,-0.422 -0.544,-8.426 -0.213,-8.797c0.476,-0.535 1.684,0.009 1.961,0.884c0.362,1.141 3.119,4.875 3.846,5.209c0.573,0.264 0.776,-1.345 0.736,-5.831c-0.007,-0.821 0.97,-0.859 1.375,-0.054m9.813,-0.014c0.323,0.042 0.254,0.753 -0.109,1.116c-0.443,0.443 -0.507,0.452 -3.33,0.469c-1.925,0.012 -2.002,0.026 -2.052,0.376c-0.082,0.576 0.444,0.721 2.774,0.768c2.302,0.046 2.694,0.173 2.694,0.871c0,0.535 -0.33,0.612 -2.512,0.588c-1.06,-0.012 -2.121,0.052 -2.357,0.141l-0.429,0.164l0.083,1.719c0.078,1.591 0.057,1.746 -0.274,2.094c-0.931,0.977 -1.318,0.404 -1.506,-2.231c-0.085,-1.179 -0.192,-2.444 -0.239,-2.811c-0.261,-2.028 -0.268,-2.89 -0.028,-3.131c0.2,-0.2 5.953,-0.305 7.285,-0.133m16.375,0.188c1.214,0.454 2.349,1.533 2.1,1.996c-0.24,0.449 -0.741,0.414 -1.641,-0.113c-1.284,-0.753 -3.357,-0.543 -3.357,0.34c0,0.604 0.486,0.901 1.667,1.021c3.775,0.383 5.411,3.183 3.063,5.244c-2.12,1.862 -6.73,0.652 -6.73,-1.766c0,-0.575 0.754,-0.533 1.409,0.077c1.516,1.411 4.356,1.329 4.649,-0.134c0.18,-0.902 -0.241,-1.467 -1.182,-1.584c-3.353,-0.418 -3.941,-0.693 -4.44,-2.08c-0.776,-2.159 1.901,-3.959 4.462,-3.001m-12.99,0.363c0.2,0.286 0.261,0.847 0.266,2.458c0.014,3.941 0.353,4.524 2.442,4.199c1.928,-0.3 2.107,-0.704 1.93,-4.367c-0.114,-2.358 0.306,-3.044 1.381,-2.257c0.481,0.353 0.489,5.658 0.01,6.72c-1.141,2.529 -6.174,2.504 -7.06,-0.035c-0.385,-1.1 -0.434,-6.366 -0.065,-6.812c0.319,-0.385 0.788,-0.345 1.096,0.094m24.909,0.197c0.903,0.819 0.411,1.016 -2.53,1.016c-2.622,0 -2.837,0.066 -2.662,0.81c0.152,0.641 0.522,0.773 2.168,0.773c1.75,0 2.207,0.156 2.207,0.75c0,0.592 -0.454,0.748 -2.138,0.735c-2.049,-0.016 -2.245,0.106 -2.113,1.319c0.213,1.969 0.266,2.006 2.442,1.713c1.562,-0.21 2.143,-0.013 2.143,0.728c0,0.768 -0.514,0.922 -3.084,0.922c-3.294,0 -3.083,0.245 -3.083,-3.565c0,-1.675 -0.088,-3.483 -0.195,-4.016c-0.312,-1.553 -0.147,-1.625 3.546,-1.557c2.619,0.049 2.987,0.09 3.299,0.372m172.087,-0.241c3.018,0.7 3.138,4.83 0.18,6.169c-0.459,0.208 -0.946,0.432 -1.084,0.499c-0.137,0.066 -0.325,0.414 -0.416,0.772c-0.227,0.885 -0.37,1.067 -0.834,1.067c-1.187,0 -1.15,-2.702 0.043,-3.111c2.609,-0.894 3.579,-2.43 2.288,-3.627c-0.765,-0.709 -1.866,-0.772 -2.997,-0.17c-0.88,0.468 -1.37,0.477 -1.649,0.033c-0.668,-1.065 2.276,-2.141 4.469,-1.632m-167.07,0.417c3.365,0.702 4.735,1.795 5.099,4.07c0.369,2.304 -2.831,4.52 -6.527,4.52c-1.349,0 -1.385,-0.076 -1.378,-2.959c0.004,-1.352 -0.077,-2.958 -0.178,-3.569c-0.282,-1.695 0.301,-2.628 1.484,-2.376c0.137,0.029 0.812,0.17 1.5,0.314m-58.607,0.232c-1.642,1.19 -1.859,3.878 -0.42,5.222c1.549,1.448 3.647,0.832 4.203,-1.235c0.807,-2.997 -1.619,-5.554 -3.783,-3.987m97.889,0.483c0.318,0.344 0.693,0.843 0.832,1.109c0.14,0.266 0.64,0.956 1.112,1.532c3.148,3.849 3.653,4.76 3.061,5.526c-0.305,0.394 -0.914,0.227 -1.423,-0.39l-0.493,-0.598l-2.644,-0.061c-3.615,-0.083 -4.01,-0.019 -4.308,0.693c-0.368,0.881 -1.753,0.757 -1.753,-0.157c0,-0.391 1.018,-2.448 2.062,-4.169c0.424,-0.699 0.772,-1.317 0.772,-1.373c0,-0.056 0.139,-0.301 0.309,-0.545c0.17,-0.243 0.355,-0.635 0.412,-0.872c0.308,-1.275 1.236,-1.588 2.061,-0.695m6.837,-0.417c0.088,0.115 0.337,0.696 0.553,1.292c0.572,1.574 1.963,4.5 2.139,4.5c0.223,0 0.646,-0.683 1.965,-3.167c0.122,-0.229 0.222,-0.587 0.223,-0.797c0.003,-1.225 1.024,-2.201 1.682,-1.606c0.412,0.373 0.353,1.088 -0.201,2.469c-0.355,0.882 -0.424,1.022 -1.078,2.195c-0.216,0.387 -0.551,1.105 -0.744,1.597c-0.794,2.022 -1.233,2.821 -1.599,2.913c-0.782,0.197 -0.936,0.027 -1.675,-1.854c-0.397,-1.008 -0.808,-2.021 -0.914,-2.25c-1.102,-2.378 -1.855,-5.218 -1.429,-5.39c0.392,-0.158 0.918,-0.11 1.078,0.098m15.53,0.693c0.914,0.828 0.195,1.161 -2.209,1.024c-2.216,-0.127 -2.836,0.003 -2.908,0.607c-0.093,0.784 0.314,0.968 2.146,0.968c1.433,0 1.7,0.045 1.988,0.333c0.818,0.818 0.226,1.169 -1.928,1.147c-2.177,-0.024 -2.265,0.034 -2.128,1.412c0.166,1.661 0.124,1.631 2.244,1.59c2.143,-0.042 2.688,0.21 2.3,1.063c-0.225,0.494 -0.875,0.595 -3.856,0.6c-2.37,0.005 -2.247,0.215 -2.365,-4.062c-0.053,-1.925 -0.144,-3.709 -0.202,-3.964c-0.075,-0.329 -0.016,-0.563 0.202,-0.804c0.45,-0.497 6.153,-0.424 6.716,0.086m14.13,0.369c0.313,0.332 0.822,0.999 1.131,1.482c0.309,0.483 0.645,0.929 0.746,0.992c0.102,0.062 0.497,0.539 0.88,1.06c0.382,0.52 0.784,1.021 0.892,1.113c0.323,0.271 1.577,2.301 1.683,2.723c0.261,1.03 -1.19,1.335 -1.696,0.358c-0.141,-0.274 -0.312,-0.501 -0.378,-0.504c-0.066,-0.004 -1.53,-0.041 -3.253,-0.083l-3.133,-0.077l-0.367,0.4c-0.202,0.221 -0.464,0.521 -0.583,0.667c-0.27,0.334 -0.929,0.344 -1.2,0.017c-0.389,-0.468 0.139,-2.017 1.308,-3.832c0.621,-0.966 1.291,-2.187 1.837,-3.353c0.767,-1.635 1.281,-1.867 2.133,-0.963m-77.107,0.22c-0.147,0.274 -0.149,0.58 -0.01,1.229c0.102,0.475 0.23,1.577 0.284,2.448c0.143,2.281 0.344,2.403 2.304,1.403c2.349,-1.199 2.811,-2.305 1.688,-4.044c-0.546,-0.847 -3.928,-1.668 -4.266,-1.036m97.415,0.132c2.727,1.408 3.199,3.736 1.313,6.474c-0.713,1.036 -0.685,1.581 0.102,1.989c0.757,0.391 0.551,1.117 -0.38,1.341c-0.393,0.095 -0.551,0.011 -1.087,-0.574c-0.612,-0.67 -0.651,-0.685 -1.721,-0.685c-3.111,0 -4.712,-1.585 -4.725,-4.678c-0.014,-3.247 3.569,-5.379 6.498,-3.867m28.128,0.064c1.271,0.638 1.785,1.116 1.785,1.661c0,0.73 -0.377,0.765 -1.589,0.15c-1.194,-0.606 -2.47,-0.63 -3.101,-0.06c-0.639,0.579 -0.063,1.398 0.981,1.394c3.93,-0.013 5.907,2.996 3.477,5.294c-1.488,1.407 -5.431,1.017 -6.266,-0.621c-0.737,-1.443 0.032,-2.256 1.011,-1.069c0.766,0.926 3.102,1.298 4.091,0.65c1.254,-0.822 0.596,-2.413 -1.002,-2.422c-0.656,-0.004 -1.436,-0.146 -2.823,-0.514c-0.998,-0.264 -1.729,-2.057 -1.298,-3.18c0.486,-1.263 3.271,-2.018 4.734,-1.283m-22.52,0.09c0.256,0.231 0.306,0.546 0.312,1.958c0.017,3.853 0.319,4.766 1.579,4.766c2.697,0 2.81,-0.147 2.826,-3.687c0.011,-2.499 0.032,-2.665 0.38,-3.013l0.369,-0.369l0.461,0.345l0.461,0.345l0,2.904c0,4.17 -0.443,4.933 -3.085,5.31c-3.501,0.5 -4.492,-0.589 -4.628,-5.088c-0.103,-3.394 0.285,-4.412 1.325,-3.471m15.5,-0.038c0.381,0.165 0.505,0.555 0.298,0.941c-0.158,0.295 -0.346,0.318 -2.374,0.279c-2.485,-0.047 -2.953,0.051 -2.953,0.616c0,0.629 0.359,0.765 2.123,0.806c1.71,0.04 2.213,0.215 2.208,0.765c-0.006,0.669 -0.264,0.769 -2.199,0.855l-1.882,0.083l0,1.417l0,1.417l1.917,0.022c2.435,0.027 2.292,0.006 2.494,0.382c0.52,0.973 -0.397,1.346 -3.307,1.346c-3.145,0 -2.979,0.223 -2.989,-4.016c-0.004,-1.752 -0.058,-3.482 -0.119,-3.845c-0.213,-1.261 -0.003,-1.337 3.497,-1.257c1.654,0.038 3.133,0.123 3.286,0.189m30.657,0.405c3.92,2.486 2.938,9.215 -1.352,9.263c-5.078,0.058 -6.507,-7.792 -1.729,-9.495c1.108,-0.395 2.225,-0.311 3.081,0.232m12.654,0.714c0.126,0.466 0.141,1.384 0.048,2.872c-0.075,1.203 -0.116,2.779 -0.091,3.501c0.085,2.408 -1.203,2.967 -2.83,1.228c-0.45,-0.481 -1.102,-1.175 -1.448,-1.541c-0.345,-0.367 -0.911,-1.061 -1.256,-1.542c-0.867,-1.209 -1.485,-0.996 -1.212,0.419c0.502,2.592 0.511,2.687 0.313,3.122c-0.165,0.362 -0.293,0.429 -0.738,0.386c-1.502,-0.145 -1.684,-9.302 -0.185,-9.302c0.311,0 1.211,0.975 1.468,1.59c0.739,1.769 3.993,5.635 4.097,4.868c0.36,-2.645 0.439,-3.993 0.287,-4.863c-0.302,-1.731 1.1,-2.399 1.547,-0.738m-24.182,-0.446c0.984,0.608 -0.449,1.686 -1.865,1.404c-1.767,-0.352 -2.073,0.122 -1.546,2.393c0.758,3.269 0.156,5.694 -1.172,4.723c-0.281,-0.206 -0.326,-0.466 -0.348,-2.042c-0.028,-1.931 -0.426,-4.61 -0.742,-4.991c-0.126,-0.152 -0.546,-0.231 -1.223,-0.231c-1.353,0 -2.11,-0.628 -1.496,-1.242c0.26,-0.26 7.973,-0.273 8.392,-0.014m2.932,-0.011c0.578,0.423 0.844,7.312 0.311,8.072c-0.366,0.523 -1.225,0.445 -1.521,-0.139c-0.389,-0.768 -0.121,-7.506 0.314,-7.875c0.415,-0.352 0.487,-0.357 0.896,-0.058m-101.587,1.711c-1.029,1.749 -1.023,1.922 0.081,2.029c3.464,0.336 3.838,0.074 2.369,-1.662c-0.495,-0.584 -0.989,-1.23 -1.098,-1.436c-0.31,-0.582 -0.442,-0.478 -1.352,1.069m54.74,-0.967c-1.13,0.689 -1.508,1.407 -1.416,2.689c0.089,1.235 1.152,2.498 2.104,2.5c0.515,0.001 0.569,-0.139 0.263,-0.676c-0.623,-1.089 0.453,-1.515 1.481,-0.586c0.363,0.328 0.718,0.596 0.789,0.596c0.607,0 1.536,-1.568 1.536,-2.592c0,-1.539 -3.241,-2.855 -4.757,-1.931m52.841,0.346c-1.322,0.852 -1.516,1.175 -1.664,2.765c-0.36,3.862 4.447,4.895 5.106,1.098c0.487,-2.81 -1.542,-5.088 -3.442,-3.863m-71.136,1.427c-0.923,1.628 -0.918,1.665 0.257,1.83c3.425,0.483 3.793,0.182 2.213,-1.81c-1.409,-1.779 -1.472,-1.78 -2.47,-0.02m-64.17,2.686c0.355,0.54 0.036,1.279 -0.591,1.369c-0.42,0.06 -1.187,-0.54 -1.187,-0.929c0,-0.934 1.252,-1.244 1.778,-0.44m155.963,2.601c0.741,1.057 -0.597,2.039 -1.395,1.024c-0.428,-0.544 -0.429,-0.645 -0.012,-1.061c0.442,-0.443 1.083,-0.426 1.407,0.037m-296.489,7.723c0.887,0.727 1.168,1.267 0.909,1.751c-0.241,0.451 -0.609,0.402 -1.259,-0.169c-1.379,-1.211 -3.556,-1.043 -4.624,0.356c-1.099,1.442 -1.501,4.989 -0.742,6.552c0.952,1.961 4.069,2.35 5.91,0.739c1.197,-1.048 1.982,-0.786 1.53,0.51c-0.707,2.027 -4.59,2.64 -7.458,1.176c-2.627,-1.34 -2.709,-7.878 -0.13,-10.355c1.652,-1.589 4.3,-1.841 5.864,-0.56m11.215,2.787c0.423,0.451 0.876,7.956 0.507,8.401c-0.604,0.728 -1.724,0.04 -1.724,-1.06l0,-0.804l-0.75,-0.113c-1.081,-0.163 -3.298,-0.162 -3.399,0.001c-0.048,0.077 -0.028,0.358 0.044,0.625c0.263,0.977 -0.393,2.058 -1.11,1.83c-0.665,-0.211 -0.748,-0.688 -0.833,-4.791l-0.081,-3.956l0.459,-0.209c0.832,-0.379 1.087,0.195 1.087,2.443c0,2.288 -0.088,2.197 2.291,2.348c2.515,0.159 2.438,0.238 2.288,-2.359c-0.111,-1.928 -0.099,-2.05 0.235,-2.384c0.444,-0.444 0.545,-0.441 0.986,0.028m10.064,0.306c0.367,0.192 0.552,0.797 0.316,1.034c-0.125,0.125 -0.96,0.17 -2.526,0.137c-2.447,-0.051 -2.821,0.036 -2.821,0.663c0,0.734 0.617,1.032 1.908,0.923c1.661,-0.14 2.426,0.087 2.426,0.721c0,0.67 -0.163,0.725 -2.043,0.688c-2.057,-0.041 -2.124,0.006 -2.124,1.489c0,1.607 0.093,1.672 2.248,1.578c1.956,-0.085 2.578,0.149 2.345,0.883c-0.201,0.635 -0.679,0.742 -3.196,0.717c-3.421,-0.033 -3.188,0.342 -3.164,-5.103l0.017,-3.833l2.083,-0.096c2.295,-0.105 4.098,-0.026 4.531,0.199m8.147,0.08c1.89,0.558 1.793,1.893 -0.102,1.415c-1.963,-0.494 -3.566,0.389 -4.327,2.383c-0.873,2.286 0.844,3.859 3.595,3.293c1.924,-0.396 2.599,-0.178 2.194,0.71c-0.872,1.912 -6.33,1.03 -7.308,-1.182c-1.567,-3.542 2.193,-7.726 5.948,-6.619m25.502,0.305c3.359,1.908 3.509,7.305 0.248,8.911c-1.219,0.6 -1.265,0.604 -2.676,0.249c-4.244,-1.066 -4.746,-7.621 -0.705,-9.205c1.537,-0.602 2.004,-0.596 3.133,0.045m-20.608,0.357c0.304,0.304 0.357,0.532 0.542,2.309c0.184,1.781 0.242,1.768 2.553,-0.557c2.039,-2.052 2.491,-2.32 2.837,-1.674c0.275,0.514 0.079,0.879 -1.096,2.042c-0.591,0.586 -1.074,1.197 -1.074,1.36c0,0.39 1.604,3.044 2.209,3.655c0.676,0.682 0.588,1.333 -0.19,1.407c-0.652,0.062 -1.645,-0.764 -2.192,-1.823c-0.456,-0.883 -1.147,-1.648 -1.489,-1.648c-0.595,0 -1.505,1.255 -1.505,2.075c0,1.068 -0.918,1.65 -1.571,0.997c-0.341,-0.341 -0.398,-7.87 -0.062,-8.205c0.276,-0.277 0.726,-0.25 1.038,0.062m26.233,0.196c0.083,0.161 0.193,1.379 0.245,2.709c0.15,3.809 0.442,4.279 2.534,4.065c1.891,-0.194 1.916,-0.241 1.916,-3.523c0,-2.93 0.112,-3.376 0.847,-3.376c0.838,0 1.029,0.723 0.948,3.584c-0.109,3.83 -0.637,4.774 -2.849,5.094c-2.48,0.359 -3.686,-0.009 -4.445,-1.356c-0.504,-0.893 -0.654,-6.649 -0.189,-7.212c0.299,-0.361 0.804,-0.353 0.993,0.015m13.445,0.279c0.367,0.006 1.015,-0.048 1.439,-0.12c1.193,-0.203 1.756,0.605 0.97,1.391c-0.298,0.298 -0.514,0.334 -1.741,0.291c-2.023,-0.071 -1.935,-0.367 -1.244,4.201c0.304,2.012 -0.033,3 -1.023,3c-0.64,0 -0.716,-0.199 -0.682,-1.778c0.016,-0.757 -0.083,-1.909 -0.22,-2.56c-0.137,-0.651 -0.249,-1.446 -0.249,-1.767c0,-1.041 -0.211,-1.228 -1.385,-1.228c-1.549,0 -2.252,-0.672 -1.495,-1.429c0.256,-0.257 0.524,-0.272 2.625,-0.149c1.286,0.076 2.639,0.142 3.005,0.148m27.198,-0.106c0.36,0.229 0.552,1.041 0.553,2.338c0,0.705 0.079,2.311 0.174,3.57c0.195,2.583 0.112,2.961 -0.655,2.961c-0.693,0 -1.103,-0.549 -1.103,-1.476l0,-0.774l-1.667,-0.105c-2.453,-0.154 -2.622,-0.102 -2.491,0.772c0.19,1.269 -0.573,2.126 -1.418,1.591c-0.337,-0.213 -0.533,-2.028 -0.587,-5.425c-0.049,-3.11 0.018,-3.416 0.746,-3.416c0.709,0 0.834,0.385 0.834,2.569c0,2.18 -0.174,1.951 1.666,2.2c3.094,0.417 3.219,0.26 2.74,-3.436c-0.134,-1.03 0.54,-1.794 1.208,-1.369m173.764,0.705c1.507,0.731 2.113,1.293 3.222,2.986c0.559,0.855 0.717,3.973 0.244,4.845c-0.856,1.576 -2.889,3.007 -4.844,3.41c-0.321,0.066 -0.905,0.226 -1.298,0.355c-1.125,0.37 -2.145,0.311 -2.439,-0.14c-0.403,-0.62 -0.429,-11.759 -0.028,-12.052c0.701,-0.512 3.534,-0.184 5.143,0.596m-186.545,-0.352c0.688,0.071 1.803,0.064 2.479,-0.018c1.322,-0.158 1.854,0.047 1.854,0.715c0,0.64 -0.446,0.819 -2.053,0.822c-1.829,0.003 -2.028,0.093 -1.884,0.854c0.822,4.334 0.795,6.064 -0.099,6.378c-0.8,0.281 -1.189,-0.256 -1.075,-1.485c0.081,-0.87 -0.091,-2.523 -0.523,-5l-0.116,-0.667l-1.223,-0.083c-1.028,-0.07 -1.274,-0.146 -1.542,-0.477c-0.866,-1.071 0.533,-1.419 4.182,-1.039m22.968,0.157c0.281,0.157 0.371,0.335 0.334,0.662l-0.052,0.447l-2.349,0c-2.453,0 -2.901,0.116 -2.901,0.75c0,0.544 0.469,0.724 1.969,0.755c2.044,0.042 2.019,0.037 2.218,0.474c0.405,0.888 0.015,1.104 -1.993,1.104c-1.173,0 -1.863,0.07 -1.994,0.2c-0.243,0.243 -0.264,1.777 -0.032,2.386l0.167,0.441l1.898,-0.049c2.412,-0.062 3.149,0.435 1.995,1.344c-0.707,0.556 -5.238,0.525 -5.607,-0.038c-0.378,-0.576 -0.487,-8.389 -0.121,-8.62c0.384,-0.241 6.001,-0.116 6.468,0.144m-58.581,-0.032c-0.738,0.158 -1.887,1.439 -1.887,2.103c0,0.333 -0.086,0.794 -0.191,1.025c-0.877,1.925 2.322,4.199 4.053,2.88c2.484,-1.891 0.926,-6.631 -1.975,-6.008m75.506,0.266c0.468,0.748 0.736,7.858 0.314,8.333c-0.656,0.74 -1.54,0.129 -1.54,-1.064c0,-0.939 0.068,-0.907 -2.274,-1.047c-1.774,-0.106 -1.885,-0.039 -1.84,1.11c0.038,0.977 -0.434,1.567 -1.116,1.396c-0.681,-0.171 -0.756,-0.53 -0.918,-4.422c-0.171,-4.117 -0.152,-4.308 0.443,-4.457c0.834,-0.21 0.947,0.044 1.038,2.322c0.1,2.514 -0.162,2.238 2.26,2.38c2.355,0.138 2.665,0.005 2.506,-1.074c-0.303,-2.055 -0.306,-3.198 -0.01,-3.525c0.392,-0.433 0.849,-0.414 1.137,0.048m7.886,0.394c0.312,0.331 0.864,1.025 1.227,1.542c0.363,0.516 1.073,1.426 1.578,2.022c0.505,0.596 1.043,1.271 1.196,1.5c1.521,2.281 1.62,2.57 1.06,3.078c-0.448,0.405 -1.099,0.216 -1.425,-0.413c-0.141,-0.274 -0.311,-0.504 -0.378,-0.511c-0.066,-0.008 -1.495,-0.045 -3.174,-0.083c-3.247,-0.074 -3.601,-0.011 -3.865,0.685c-0.174,0.458 -0.914,0.714 -1.315,0.455c-0.624,-0.402 -0.32,-1.387 1.287,-4.176c0.839,-1.456 1.679,-2.995 1.866,-3.419c0.603,-1.362 1.126,-1.546 1.943,-0.68m147.012,-0.346c0.381,0.266 0.596,0.578 2.873,4.16c0.757,1.192 1.556,2.448 1.775,2.792c0.686,1.075 0.851,0.874 3.39,-4.144c2.688,-5.31 3.992,-3.526 4.001,5.473l0.003,3.122l-0.436,0.285c-0.391,0.257 -0.48,0.261 -0.875,0.039l-0.439,-0.247l0,-3.993c0,-4.486 -0.107,-5.064 -0.737,-3.97c-0.204,0.354 -0.439,0.756 -0.521,0.893c-0.083,0.138 -0.493,0.888 -0.913,1.667c-0.42,0.779 -0.869,1.604 -0.999,1.833c-0.32,0.567 -0.842,1.654 -1.055,2.2c-0.558,1.426 -1.674,1.186 -2.077,-0.447c-0.308,-1.251 -0.701,-1.995 -2.325,-4.41c-1.537,-2.287 -1.533,-2.29 -1.703,1.407c-0.191,4.178 -0.317,4.828 -0.978,5.073c-0.943,0.348 -1.461,-0.873 -0.946,-2.228c0.089,-0.235 0.202,-1.759 0.25,-3.386c0.194,-6.517 0.35,-7.074 1.712,-6.119m-133.691,0.438c1.411,0.692 0.811,1.305 -1.156,1.182c-2.319,-0.145 -3.944,1.314 -3.944,3.54c0,2.064 1.729,2.717 5.277,1.991c0.654,-0.134 1.028,0.357 0.715,0.94c-0.726,1.358 -5.657,1.15 -6.827,-0.288c-1.533,-1.883 -1.153,-4.2 1.041,-6.357c1.399,-1.376 3.332,-1.774 4.894,-1.008m19.358,0.304c1.33,0.811 0.479,1.228 -2.191,1.076c-2.172,-0.124 -2.654,-0.024 -2.812,0.579c-0.195,0.746 0.219,0.93 2.089,0.93c1.788,0 2.289,0.157 2.289,0.716c0,0.668 -0.486,0.867 -2.12,0.867c-2.18,0 -2.259,0.059 -2.117,1.553c0.16,1.693 0.134,1.676 2.329,1.541c2.049,-0.126 2.38,-0.002 2.175,0.815c-0.148,0.591 -0.947,0.748 -3.504,0.69c-2.827,-0.065 -2.848,-0.084 -2.692,-2.599c0.06,-0.962 0.031,-2.681 -0.065,-3.819c-0.238,-2.833 -0.422,-2.681 3.228,-2.68c2.547,0.001 2.907,0.036 3.391,0.331m8.317,-0.007c2.746,0.731 3.551,2.151 2.148,3.79c-0.722,0.843 -0.73,1.025 -0.068,1.646c1.044,0.98 1.478,1.733 1.478,2.564c0,1.614 -1.409,1.626 -1.752,0.015c-0.082,-0.385 -0.429,-0.875 -1.046,-1.478l-0.924,-0.901l-1.264,0.075c-1.889,0.112 -2.412,0.438 -2.3,1.435c0.236,2.094 -1.42,2.426 -1.738,0.348c-0.673,-4.393 -0.812,-6.69 -0.434,-7.207c0.495,-0.677 3.826,-0.839 5.9,-0.287m18.279,-0.059c0.93,0.317 1.517,0.958 1.28,1.399c-0.241,0.451 -0.593,0.513 -1.366,0.241c-2.035,-0.718 -3.926,0.777 -4.098,3.239c-0.156,2.221 1.07,3.353 3.296,3.044c1.492,-0.206 1.667,-0.351 1.667,-1.372c0,-1.11 -0.404,-1.382 -1.816,-1.222c-1.828,0.207 -3.019,-0.889 -1.567,-1.441c0.539,-0.205 3.747,-0.197 4.292,0.01c1.47,0.559 1.206,5.323 -0.296,5.344c-0.291,0.004 -0.829,0.115 -1.196,0.247c-1.469,0.529 -3.881,0.132 -4.885,-0.806c-2.392,-2.232 -0.957,-8.107 2.081,-8.525c0.451,-0.062 0.929,-0.181 1.062,-0.265c0.343,-0.218 0.657,-0.196 1.546,0.107m-41.483,0.33c0.197,0.196 0.262,0.61 0.262,1.653c0,2.537 0.241,2.538 2.761,0.001c1.921,-1.933 2.306,-2.16 2.811,-1.654c0.414,0.413 0.332,0.575 -0.991,1.968c-1.379,1.452 -1.389,1.475 -0.904,2.186c0.187,0.275 0.516,0.838 0.731,1.252c0.215,0.413 0.698,1.088 1.075,1.5c0.972,1.063 0.882,1.498 -0.307,1.498c-0.541,0 -1.574,-1.059 -2.501,-2.565c-0.319,-0.517 -0.697,-0.935 -0.847,-0.935c-0.457,0 -1.461,1.307 -1.586,2.065c-0.174,1.05 -0.345,1.269 -0.992,1.269c-0.379,0 -0.619,-0.099 -0.713,-0.292c-0.237,-0.485 -0.082,-7.91 0.169,-8.069c0.333,-0.212 0.748,-0.162 1.032,0.123m117.376,-0.061c-0.286,0.215 -0.155,7.849 0.15,8.779c0.156,0.473 2.417,-0.172 3.956,-1.127c2.034,-1.262 2.224,-4.519 0.359,-6.153c-1.468,-1.286 -3.735,-2.047 -4.465,-1.499m-70.069,0.507c0.228,0.173 0.287,0.646 0.35,2.802c0.106,3.679 0.403,4.285 2.011,4.096c2.379,-0.28 2.442,-0.384 2.395,-3.967c-0.034,-2.627 0.058,-2.973 0.791,-2.973c0.822,0 0.908,0.308 0.907,3.221c-0.001,4.481 -0.468,5.197 -3.614,5.541c-3.096,0.338 -4.11,-1.039 -4.126,-5.601c-0.011,-2.97 0.345,-3.832 1.286,-3.119m16.955,0.483c2.136,0.597 2.89,1.006 3.366,1.828c1.348,2.331 1.136,3.902 -0.665,4.918c-0.431,0.244 -1.053,0.613 -1.383,0.821c-0.329,0.208 -1.235,0.498 -2.013,0.643c-2.9,0.544 -3.021,0.431 -3.051,-2.836c-0.012,-1.273 -0.084,-2.851 -0.16,-3.505c-0.29,-2.488 0.439,-2.837 3.906,-1.869m12.888,-0.142c1.161,0.76 0.271,1.354 -1.678,1.119c-0.711,-0.085 -1.706,-0.102 -2.21,-0.037l-0.916,0.119l0,0.666l0,0.667l1.583,0.041c1.989,0.053 2.314,0.129 2.488,0.589c0.303,0.803 -0.007,0.953 -1.961,0.953c-2.165,0 -2.194,0.021 -2.194,1.597c0,1.613 0.048,1.644 2.324,1.524c1.855,-0.098 2.343,0.042 2.343,0.672c0,0.658 -0.821,0.874 -3.314,0.871c-3.204,-0.003 -3.264,-0.056 -3.093,-2.722c0.054,-0.839 0.028,-2.425 -0.058,-3.525c-0.165,-2.107 -0.08,-2.682 0.414,-2.785c1.039,-0.218 5.851,-0.025 6.272,0.251m15.276,0.298c3.668,2.899 2.502,8.986 -1.721,8.986c-2.367,0 -3.744,-1.15 -4.438,-3.708c-1.075,-3.963 3.195,-7.622 6.159,-5.278m-34.814,-0.245c0.314,0.379 0.542,7.133 0.261,7.731c-0.246,0.522 -1.007,0.646 -1.459,0.236c-0.416,-0.376 -0.386,-7.819 0.033,-8.084c0.367,-0.232 0.921,-0.176 1.165,0.117m-38.35,0.279c-0.665,0.336 -0.729,2.721 -0.078,2.885c1.871,0.469 4.912,-0.646 4.912,-1.803c0,-0.776 -3.768,-1.619 -4.834,-1.082m84.258,0.373c1.831,0.914 2.17,2.082 1.002,3.446c-0.756,0.884 -0.751,0.932 0.215,1.995c1.542,1.696 1.688,3.305 0.298,3.305c-0.354,0 -0.773,-0.465 -0.773,-0.857c0,-1.369 -1.732,-2.551 -3.571,-2.436c-1.886,0.118 -2.095,0.251 -2.098,1.34c-0.004,1.53 -0.588,2.266 -1.263,1.591c-0.476,-0.475 -1.279,-7.56 -0.954,-8.408c0.306,-0.797 5.535,-0.779 7.144,0.024m-122.883,1.366c-0.935,1.686 -0.925,1.809 0.167,1.95c3.815,0.491 4.028,0.276 2.042,-2.056c-1.246,-1.463 -1.34,-1.459 -2.209,0.106m81.54,-0.783c-0.151,0.244 0.098,5.189 0.279,5.538c0.324,0.625 2.604,-0.133 3.765,-1.252c0.644,-0.621 0.754,-1.791 0.25,-2.655c-0.555,-0.95 -3.924,-2.23 -4.294,-1.631m27.139,0.25c-2.776,1.664 -1.469,6.705 1.593,6.142c0.916,-0.168 2.012,-1.328 2.046,-2.166c0.146,-3.554 -1.445,-5.291 -3.639,-3.976m9.5,0.032c-0.779,0.098 -0.908,0.361 -0.853,1.74l0.049,1.224l0.75,0.055c2.104,0.154 4.333,-0.638 4.469,-1.588c0.114,-0.795 -2.561,-1.662 -4.415,-1.431m-166.855,16.729c0.154,0.313 0.438,0.963 0.63,1.445c0.192,0.483 0.554,1.233 0.804,1.667c0.25,0.434 0.591,1.202 0.758,1.706c0.406,1.228 1.647,3.707 1.897,3.791c0.11,0.036 0.25,-0.145 0.312,-0.404c0.062,-0.258 0.321,-0.897 0.576,-1.418c0.255,-0.521 0.657,-1.507 0.893,-2.191c1.623,-4.704 2.435,-5.959 3.172,-4.907c0.339,0.484 0.328,0.706 -0.085,1.618c-0.189,0.419 -0.489,1.082 -0.667,1.474c-0.177,0.392 -0.322,0.783 -0.322,0.868c0,0.085 -0.221,0.626 -0.491,1.204c-0.27,0.577 -0.827,2.036 -1.237,3.244c-1.145,3.369 -1.869,4.358 -2.571,3.512c-0.232,-0.278 -2.868,-5.488 -2.868,-5.667c0,-0.076 -0.252,-0.679 -0.561,-1.34c-1.049,-2.245 -1.272,-2.765 -1.278,-2.983c-0.003,-0.119 -0.15,-0.517 -0.327,-0.884c-0.425,-0.878 -0.414,-1.231 0.041,-1.4c0.551,-0.205 1.005,0.023 1.324,0.665m19.931,-0.589c0.429,0.301 0.511,1.752 0.195,3.462c-0.127,0.686 -0.121,1.401 0.02,2.573c0.108,0.892 0.182,1.735 0.164,1.872c-0.017,0.138 -0.057,1.048 -0.087,2.023c-0.065,2.052 -0.223,2.477 -0.923,2.477c-0.754,0 -1.07,-0.745 -0.935,-2.202c0.121,-1.3 -0.039,-1.462 -1.45,-1.467c-0.383,-0.001 -1.147,-0.111 -1.697,-0.244c-2.545,-0.614 -2.917,-0.395 -2.917,1.719c0,1.769 -0.109,2.028 -0.853,2.028c-0.723,0 -0.871,-0.736 -0.754,-3.729c0.055,-1.387 0.147,-3.759 0.206,-5.271c0.128,-3.319 0.48,-4.051 1.389,-2.895c0.408,0.519 0.427,1.013 0.148,3.848c-0.111,1.12 -0.153,2.084 -0.096,2.142c0.393,0.393 5.826,0.923 6.033,0.589c0.067,-0.108 0.16,-1.675 0.206,-3.482c0.098,-3.781 0.264,-4.204 1.351,-3.443m-46.372,2.646c0.202,0.308 0.266,0.847 0.269,2.242c0.004,2.26 -0.091,2.174 2.452,2.227c2.544,0.053 2.648,-0.106 2.018,-3.098c-0.266,-1.261 0.56,-2.229 1.317,-1.544c0.256,0.231 0.318,0.668 0.411,2.895c0.06,1.442 0.157,3.226 0.214,3.964c0.183,2.327 -1.534,2.864 -1.766,0.552l-0.089,-0.893l-1.89,-0.133c-2.244,-0.158 -2.343,-0.112 -2.233,1.03c0.064,0.671 0.016,0.876 -0.275,1.167c-0.708,0.708 -1.395,0.275 -1.458,-0.918c-0.024,-0.447 -0.083,-1.3 -0.132,-1.896c-0.412,-5.038 0.055,-7.285 1.162,-5.595m-5.174,0.011c2.398,0 2.583,0.054 2.583,0.754c0,0.683 -0.415,0.842 -2.067,0.79c-1.846,-0.057 -1.875,-0.027 -1.633,1.742c0.568,4.168 0.571,4.218 0.315,4.83c-0.604,1.447 -1.856,0.7 -1.691,-1.009c0.07,-0.725 0.015,-1.624 -0.158,-2.607c-0.146,-0.825 -0.265,-1.738 -0.265,-2.029c-0.001,-0.815 -0.36,-1.054 -1.584,-1.054c-0.948,0 -1.096,-0.047 -1.407,-0.442c-0.687,-0.873 0.614,-1.354 2.907,-1.076c0.458,0.056 1.808,0.101 3,0.101m20.728,0.009c0.949,0.282 1.148,0.527 0.861,1.064c-0.177,0.331 -0.301,0.346 -2.525,0.304c-2.149,-0.04 -2.357,-0.017 -2.576,0.28c-0.589,0.8 -0.071,1.093 1.928,1.093c1.781,0 2.167,0.162 2.167,0.908c0,0.625 -0.339,0.745 -2.26,0.795l-1.823,0.047l-0.05,1.224c-0.07,1.744 -0.044,1.763 2.244,1.633c2.236,-0.128 2.856,0.191 2.176,1.121c-0.353,0.483 -2.986,0.692 -5.658,0.45c-0.416,-0.038 -0.615,-1.051 -0.564,-2.88c0.029,-1.049 0,-2.689 -0.063,-3.644c-0.155,-2.326 -0.078,-2.453 1.539,-2.53c2.914,-0.139 3.766,-0.113 4.604,0.135m169.324,0.454c0.107,0.129 0.178,1.255 0.181,2.875c0.003,1.464 0.055,3.243 0.116,3.953c0.158,1.849 -0.764,2.637 -1.375,1.175c-0.424,-1.017 -0.358,-6.688 0.096,-8.174c0.044,-0.142 0.836,-0.004 0.982,0.171m-113.943,0.38c1.411,0.154 2.025,0.815 1.237,1.331c-0.348,0.228 -0.588,0.239 -1.709,0.081c-2.115,-0.298 -3.29,-0.072 -3.358,0.645c-0.074,0.77 0.11,0.845 2.084,0.848c1.793,0.002 2.22,0.164 2.22,0.838c0,0.613 -0.598,0.82 -2.075,0.715c-1.945,-0.137 -2.092,-0.03 -2.092,1.518c0,1.64 0.049,1.674 2.264,1.548c1.746,-0.099 2.412,0.089 2.4,0.675c-0.013,0.678 -0.781,0.875 -3.403,0.875c-3.281,0 -3.061,0.276 -3.077,-3.86c-0.006,-1.773 -0.058,-3.535 -0.114,-3.915c-0.171,-1.153 0.111,-1.3 2.597,-1.356c1.146,-0.025 2.507,0 3.026,0.057m-10.605,0.353c0.872,0.053 1.779,0.015 2.16,-0.09c0.786,-0.218 1.421,0.091 1.416,0.69c-0.005,0.765 -0.22,0.866 -2.032,0.954l-1.715,0.084l-0.052,0.718c-0.028,0.395 0.059,1.07 0.195,1.5c0.624,1.983 0.512,4.4 -0.221,4.779c-0.88,0.455 -1.103,0.068 -1.229,-2.135c-0.118,-2.058 -0.533,-4.568 -0.811,-4.904c-0.103,-0.125 -0.578,-0.208 -1.181,-0.208c-1.344,0 -2.113,-0.715 -1.402,-1.305c0.227,-0.189 2.245,-0.353 2.951,-0.24c0.229,0.036 1.093,0.107 1.921,0.157m19.323,0.763c0.425,0.573 1.385,1.819 2.133,2.769c2.713,3.447 3.186,4.422 2.396,4.939c-0.494,0.324 -0.807,0.205 -1.356,-0.514l-0.434,-0.569l-3.2,0.002c-3.412,0.003 -3.434,0.007 -3.739,0.701c-0.374,0.851 -1.711,0.746 -1.711,-0.134c0,-0.467 1.096,-2.746 2.118,-4.403c0.367,-0.596 0.876,-1.533 1.132,-2.083c0.973,-2.098 1.522,-2.244 2.661,-0.708m8.577,-0.603c0.19,0.242 0.346,0.536 0.346,0.655c0,0.316 0.596,1.246 2.383,3.719c1.026,1.42 1.271,1.522 1.621,0.676c0.205,-0.495 2.355,-3.86 3.001,-4.697c1.134,-1.47 1.774,-0.188 1.979,3.964c0.075,1.506 0.22,2.837 0.334,3.049c0.273,0.51 0.165,1.536 -0.185,1.755c-0.421,0.264 -1.186,-0.061 -1.326,-0.563c-0.328,-1.181 -0.501,-2.251 -0.536,-3.316c-0.045,-1.322 -0.235,-1.686 -0.64,-1.227c-0.254,0.288 -2.048,3.713 -2.381,4.546c-0.417,1.041 -1.471,0.501 -2.156,-1.104c-0.592,-1.389 -2.017,-3.563 -2.335,-3.563c-0.334,0 -0.471,1.096 -0.284,2.261c0.259,1.609 -0.081,2.573 -0.908,2.573c-0.898,0 -1.095,-1.734 -0.759,-6.675c0.159,-2.334 0.941,-3.204 1.846,-2.053m24.408,0.179c4.149,2.122 3.183,9.373 -1.25,9.38c-5.51,0.01 -6.332,-8.577 -0.925,-9.659c0.799,-0.16 1.49,-0.071 2.175,0.279m12.787,0.578c0.351,0.655 0.024,8.031 -0.374,8.459c-0.658,0.706 -2.244,0.116 -3.034,-1.129c-0.078,-0.122 -0.585,-0.712 -1.126,-1.31c-0.542,-0.597 -1.112,-1.301 -1.266,-1.563c-0.807,-1.364 -1.476,-0.048 -0.799,1.571c0.701,1.678 -0.067,3.46 -1.062,2.465c-0.542,-0.543 -0.869,-8.153 -0.375,-8.748c0.575,-0.693 1.426,-0.1 2.356,1.642c1.106,2.073 3.47,4.863 3.807,4.493c0.233,-0.255 0.521,-4.242 0.365,-5.06c-0.251,-1.324 0.902,-1.952 1.508,-0.82m14.602,0.173c0.387,0.193 0.901,0.556 1.14,0.806c0.863,0.9 0.149,1.737 -0.883,1.037c-1.325,-0.9 -3.875,-0.869 -3.875,0.047c0,0.663 0.711,1.025 2.447,1.245c2.875,0.364 4.16,2.161 3.071,4.294c-1.226,2.401 -5.999,2.313 -7.101,-0.132c-0.541,-1.198 0.241,-1.602 1.301,-0.672c1.513,1.329 4.583,1.089 4.61,-0.361c0.019,-1.017 -0.514,-1.335 -2.745,-1.637c-2.177,-0.296 -2.637,-0.609 -3.084,-2.099c-0.657,-2.194 2.584,-3.794 5.119,-2.528m17.043,0.128c0.169,0.09 0.654,0.634 1.08,1.208c1.422,1.922 2.005,2.677 2.532,3.28c1.082,1.239 2.06,2.876 2.06,3.448c0,1.047 -1.061,1.129 -1.679,0.13c-0.345,-0.558 -0.365,-0.565 -1.46,-0.535c-0.611,0.017 -1.973,0.006 -3.027,-0.023c-2.28,-0.065 -2.539,0.001 -2.983,0.752c-0.387,0.657 -0.96,0.767 -1.408,0.272c-0.437,-0.484 -0.046,-1.459 1.881,-4.69c0.299,-0.501 0.839,-1.514 1.2,-2.25c0.824,-1.678 1.133,-1.951 1.804,-1.592m-11.494,0.166c0.203,0.128 0.265,0.757 0.333,3.346c0.107,4.079 -0.023,3.915 2.965,3.766c2.239,-0.112 2.447,-0.03 2.064,0.811c-0.29,0.636 -1.573,0.866 -5.346,0.957c-1.043,0.025 -1.13,-0.256 -1.267,-4.094c-0.163,-4.571 0.085,-5.521 1.251,-4.786m25.365,0.333c0.99,0.476 0.794,1.435 -0.258,1.264c-2.345,-0.38 -3.165,-0.173 -4.044,1.02c-2.333,3.171 -0.812,5.185 3.446,4.562c2.005,-0.293 2.435,0.423 0.87,1.447c-1.196,0.783 -5.183,0.139 -6.134,-0.991c-2.894,-3.44 2.002,-9.281 6.12,-7.302m-61.212,0.406c-0.694,0.51 -1.229,1.309 -1.134,1.696c0.02,0.084 -0.021,0.429 -0.091,0.767c-0.523,2.509 2.48,4.499 4.269,2.83c2.651,-2.473 -0.18,-7.395 -3.044,-5.293m65.631,0.297c0.095,0.12 0.211,0.915 0.257,1.767c0.046,0.852 0.131,1.595 0.188,1.653c0.245,0.244 1.601,-0.899 3.576,-3.013c0.729,-0.781 1.267,-0.967 1.661,-0.573c0.389,0.389 0.187,0.813 -0.966,2.028c-1.291,1.358 -1.331,1.475 -0.792,2.298c0.206,0.315 0.522,0.857 0.702,1.206c0.179,0.349 0.616,0.963 0.97,1.365c0.755,0.859 0.78,1.394 0.077,1.641c-0.571,0.2 -1.409,-0.544 -2.54,-2.257c-0.955,-1.446 -1.132,-1.5 -2.03,-0.619c-0.583,0.573 -0.721,0.821 -0.721,1.303c0,1.083 -0.681,1.607 -1.511,1.163c-0.529,-0.283 -0.495,-7.854 0.037,-8.227c0.371,-0.26 0.745,-0.169 1.092,0.265m-96.872,0.095c-0.311,0.223 -1.592,2.599 -1.542,2.86c0.066,0.34 2.082,0.687 3.255,0.561c1.162,-0.125 1.159,-0.477 -0.016,-1.798c-0.49,-0.55 -0.979,-1.169 -1.089,-1.375c-0.21,-0.397 -0.331,-0.446 -0.608,-0.248m77.473,2.581c-1.186,2.105 -1.218,2.036 1.049,2.209c2.652,0.202 2.992,-0.603 0.984,-2.334c-0.106,-0.092 -0.328,-0.373 -0.492,-0.625c-0.476,-0.732 -0.793,-0.578 -1.541,0.75m-247.261,2.198c0.099,1.233 -0.003,1.458 -1.99,4.376c-4.273,6.274 -10.635,11.975 -17.746,15.903c-3.219,1.778 -3.238,1.949 -0.268,2.405c5.99,0.92 14.505,1.124 17.213,0.413c0.321,-0.084 1.296,-0.274 2.167,-0.421c6.448,-1.094 13.302,-5.159 16.577,-9.832c1.28,-1.826 2.03,-2.28 2.817,-1.704c0.35,0.256 -2.446,4.308 -3.855,5.586c-2.898,2.63 -6.669,4.999 -9.456,5.942c-1.008,0.341 -2.208,0.757 -2.667,0.924c-0.458,0.167 -1.583,0.431 -2.5,0.585c-0.916,0.155 -2.304,0.406 -3.083,0.558c-2.069,0.402 -12.019,0.383 -15,-0.03c-3.204,-0.443 -9.123,-1.512 -9.287,-1.677c-0.174,-0.173 0.321,-0.597 1.349,-1.156c12.609,-6.858 21.22,-14.567 24.33,-21.778c0.872,-2.023 1.242,-2.048 1.399,-0.094m276.447,2.356c0.323,0.323 0.325,0.407 0.017,0.846c-0.473,0.676 -1.422,0.521 -1.422,-0.232c0,-0.709 0.912,-1.108 1.405,-0.614" id="svg_3"/>
   </g>
  </symbol>
 </defs>
 <g>
  <title>background</title>
  <rect fill="#fff" id="canvas_background" height="157" width="409" y="-1" x="-1"/>
  <g display="none" overflow="visible" y="0" x="0" height="100%" width="100%" id="canvasGrid">
   <rect fill="url(#gridpattern)" stroke-width="0" y="0" x="0" height="100%" width="100%"/>
  </g>
 </g>
 <g>
  <title>Layer 1</title>
  <use transform="translate(0,0) " xlink:href="#svg_5" id="svg_6"/>
 </g>
</svg>